<svg width="56" height="37" viewBox="0 0 56 37" fill="none" xmlns="http://www.w3.org/2000/svg">
<circle cx="28.8385" cy="18.0951" r="17.4402" fill="url(#paint0_radial)"/>
<line x1="36.8452" y1="19.8097" x2="26.8363" y2="19.8097" stroke="#6C706C" stroke-width="3" stroke-linecap="round"/>
<line x1="31.2699" y1="25.1725" x2="31.2699" y2="15.1637" stroke="#6C706C" stroke-width="3" stroke-linecap="round"/>
<rect x="24.9779" y="14.2345" width="12.7965" height="10.9381" rx="2.5" stroke="#6C6F6C" stroke-width="3"/>
<path d="M7.16785 28.3541C7.85666 28.0846 8.41069 27.6541 8.82996 27.0626C9.25672 26.4786 9.58241 25.8235 9.80701 25.0973C10.0391 24.3711 10.2937 23.3903 10.5707 22.1549C10.6231 21.9078 10.7092 21.5297 10.829 21.0206L11.8734 16.6407H14.5575L14.8046 15.63H12.098C11.9333 15.1658 11.851 14.6642 11.851 14.1251C11.851 13.616 11.9221 13.1331 12.0643 12.6764C12.2141 12.2122 12.42 11.8378 12.682 11.5533C12.9441 11.2688 13.2398 11.1266 13.5692 11.1266C13.8013 11.1266 13.9847 11.1977 14.1195 11.34C14.2543 11.4747 14.3928 11.6769 14.535 11.9464C14.6773 12.201 14.8083 12.3956 14.9281 12.5304C15.0554 12.6577 15.2238 12.7213 15.4335 12.7213C15.7105 12.7213 15.9314 12.6427 16.0961 12.4855C16.2683 12.3208 16.3544 12.1336 16.3544 11.924C16.3544 11.5047 16.2421 11.1678 16.0175 10.9132C15.8003 10.6512 15.5308 10.4677 15.2089 10.3629C14.8944 10.2506 14.5837 10.1945 14.2767 10.1945C13.2136 10.1945 12.3788 10.5389 11.7723 11.2277C11.1659 11.909 10.7279 12.8823 10.4584 14.1476L10.1439 15.63H7.85291L7.61707 16.6407H9.90809L8.72889 21.6383C8.32459 23.4127 7.93527 24.8352 7.56092 25.9059C7.18657 26.9765 6.86463 27.7028 6.5951 28.0846L7.16785 28.3541ZM22.2616 10.0709C20.1128 11.3512 18.5555 12.9309 17.5897 14.8102C16.6239 16.6819 16.141 18.6547 16.141 20.7286C16.141 21.687 16.2346 22.6191 16.4218 23.525C16.6089 24.4235 16.8635 25.2358 17.1854 25.962C17.5074 26.6958 17.8667 27.2985 18.2636 27.7701C18.286 27.8001 18.3235 27.8151 18.3759 27.8151C18.4882 27.8151 18.6604 27.7439 18.8925 27.6017C18.3534 25.6925 18.0839 23.8619 18.0839 22.11C18.0839 19.9762 18.4657 17.9397 19.2294 16.0006C19.993 14.054 21.1535 12.2571 22.7108 10.61H22.7221C22.6622 10.4902 22.5835 10.3704 22.4862 10.2506C22.3964 10.1233 22.3327 10.0597 22.2953 10.0597L22.2616 10.0709ZM42.308 27.7701C44.4568 26.4899 46.014 24.9139 46.9799 23.0421C47.9457 21.1629 48.4286 19.1863 48.4286 17.1124C48.4286 16.1541 48.335 15.2257 48.1478 14.3273C47.9607 13.4213 47.7061 12.6053 47.3842 11.879C47.0622 11.1453 46.7028 10.5426 46.306 10.0709C46.2836 10.041 46.2461 10.026 46.1937 10.026C46.0814 10.026 45.9092 10.0971 45.6771 10.2394C46.2162 12.1486 46.4857 13.9791 46.4857 15.7311C46.4857 17.8649 46.1039 19.9051 45.3402 21.8517C44.5765 23.7908 43.4161 25.5839 41.8588 27.2311H41.8475C41.9074 27.3509 41.9861 27.4707 42.0834 27.5905C42.1732 27.7177 42.2369 27.7814 42.2743 27.7814L42.308 27.7701Z" fill="#C6C6CA"/>
<path d="M7.16785 28.3541L7.04012 28.6256L7.15694 28.6805L7.27717 28.6335L7.16785 28.3541ZM8.82996 27.0626L8.58772 26.8856L8.58522 26.8891L8.82996 27.0626ZM9.80701 25.0973L9.52124 25.006L9.52041 25.0086L9.80701 25.0973ZM10.5707 22.1549L10.8634 22.2206L10.8642 22.2172L10.5707 22.1549ZM10.829 21.0206L10.5372 20.951L10.537 20.9519L10.829 21.0206ZM11.8734 16.6407V16.3407H11.6365L11.5816 16.5712L11.8734 16.6407ZM14.5575 16.6407V16.9407H14.793L14.8489 16.712L14.5575 16.6407ZM14.8046 15.63L15.096 15.7012L15.1867 15.33H14.8046V15.63ZM12.098 15.63L11.8153 15.7303L11.8862 15.93H12.098V15.63ZM12.0643 12.6764L11.7788 12.5843L11.7779 12.5872L12.0643 12.6764ZM14.1195 11.34L13.9016 11.5464L13.9074 11.5521L14.1195 11.34ZM14.535 11.9464L14.2697 12.0865L14.2732 12.0928L14.535 11.9464ZM14.9281 12.5304L14.7039 12.7297L14.7097 12.7363L14.716 12.7425L14.9281 12.5304ZM16.0961 12.4855L16.3032 12.7025L16.3034 12.7023L16.0961 12.4855ZM16.0175 10.9132L15.7863 11.1047L15.7925 11.1117L16.0175 10.9132ZM15.2089 10.3629L15.1079 10.6456L15.116 10.6482L15.2089 10.3629ZM11.7723 11.2277L11.9964 11.4271L11.9975 11.4259L11.7723 11.2277ZM10.4584 14.1476L10.165 14.0851L10.1649 14.0853L10.4584 14.1476ZM10.1439 15.63V15.93H10.387L10.4374 15.6923L10.1439 15.63ZM7.85291 15.63V15.33H7.61485L7.56076 15.5618L7.85291 15.63ZM7.61707 16.6407L7.32492 16.5726L7.23901 16.9407H7.61707V16.6407ZM9.90809 16.6407L10.2001 16.7096L10.2871 16.3407H9.90809V16.6407ZM8.72889 21.6383L8.4369 21.5694L8.43639 21.5717L8.72889 21.6383ZM6.5951 28.0846L6.35001 27.9116L6.14377 28.2038L6.46736 28.356L6.5951 28.0846ZM7.27717 28.6335C8.01931 28.3431 8.62087 27.8763 9.07471 27.2361L8.58522 26.8891C8.20051 27.4318 7.694 27.8261 7.05853 28.0748L7.27717 28.6335ZM9.07218 27.2396C9.5195 26.6275 9.85971 25.9422 10.0936 25.1859L9.52041 25.0086C9.3051 25.7048 8.99394 26.3298 8.58775 26.8856L9.07218 27.2396ZM10.0928 25.1886C10.3288 24.4502 10.5855 23.4597 10.8634 22.2205L10.278 22.0893C10.0018 23.3208 9.74947 24.2919 9.52125 25.006L10.0928 25.1886ZM10.8642 22.2172C10.9158 21.9735 11.0013 21.5981 11.121 21.0893L10.537 20.9519C10.4171 21.4614 10.3303 21.8422 10.2772 22.0927L10.8642 22.2172ZM11.1208 21.0902L12.1652 16.7103L11.5816 16.5712L10.5372 20.951L11.1208 21.0902ZM11.8734 16.9407H14.5575V16.3407H11.8734V16.9407ZM14.8489 16.712L15.096 15.7012L14.5132 15.5588L14.2661 16.5695L14.8489 16.712ZM14.8046 15.33H12.098V15.93H14.8046V15.33ZM12.3808 15.5297C12.2285 15.1006 12.151 14.6332 12.151 14.1251H11.551C11.551 14.6951 11.6381 15.231 11.8153 15.7303L12.3808 15.5297ZM12.151 14.1251C12.151 13.6443 12.2181 13.1916 12.3508 12.7656L11.7779 12.5872C11.6261 13.0746 11.551 13.5877 11.551 14.1251H12.151ZM12.3499 12.7685C12.4896 12.3352 12.6767 12.002 12.9027 11.7566L12.4614 11.3501C12.1633 11.6737 11.9385 12.0892 11.7788 12.5843L12.3499 12.7685ZM12.9027 11.7566C13.1187 11.522 13.3384 11.4266 13.5692 11.4266V10.8266C13.1412 10.8266 12.7694 11.0157 12.4614 11.3501L12.9027 11.7566ZM13.5692 11.4266C13.7354 11.4266 13.834 11.4748 13.9017 11.5463L14.3373 11.1336C14.1355 10.9206 13.8672 10.8266 13.5692 10.8266V11.4266ZM13.9074 11.5521C14.0121 11.6568 14.1342 11.8296 14.2697 12.0864L14.8004 11.8064C14.6514 11.5242 14.4965 11.2926 14.3316 11.1278L13.9074 11.5521ZM14.2732 12.0928C14.4204 12.3562 14.5636 12.5719 14.7039 12.7297L15.1523 12.3311C15.053 12.2194 14.9342 12.0457 14.7969 11.8001L14.2732 12.0928ZM14.716 12.7425C14.9088 12.9353 15.1584 13.0213 15.4335 13.0213V12.4213C15.2893 12.4213 15.202 12.38 15.1402 12.3183L14.716 12.7425ZM15.4335 13.0213C15.77 13.0213 16.0711 12.924 16.3032 12.7025L15.8889 12.2685C15.7916 12.3614 15.651 12.4213 15.4335 12.4213V13.0213ZM16.3034 12.7023C16.5259 12.4894 16.6544 12.227 16.6544 11.924H16.0544C16.0544 12.0402 16.0106 12.1521 15.8887 12.2687L16.3034 12.7023ZM16.6544 11.924C16.6544 11.4495 16.526 11.0362 16.2424 10.7147L15.7925 11.1117C15.9581 11.2994 16.0544 11.5599 16.0544 11.924H16.6544ZM16.2485 10.7218C15.9953 10.4163 15.678 10.2001 15.3017 10.0777L15.116 10.6482C15.3836 10.7353 15.6054 10.8861 15.7865 11.1046L16.2485 10.7218ZM15.3098 10.0804C14.9658 9.95754 14.621 9.89446 14.2767 9.89446V10.4945C14.5464 10.4945 14.8231 10.5437 15.108 10.6454L15.3098 10.0804ZM14.2767 9.89446C13.1425 9.89446 12.2198 10.2654 11.5472 11.0294L11.9975 11.4259C12.5377 10.8123 13.2847 10.4945 14.2767 10.4945V9.89446ZM11.5483 11.0282C10.8957 11.7613 10.4411 12.789 10.165 14.0851L10.7518 14.2101C11.0148 12.9756 11.4361 12.0567 11.9964 11.4271L11.5483 11.0282ZM10.1649 14.0853L9.85046 15.5678L10.4374 15.6923L10.7519 14.2098L10.1649 14.0853ZM10.1439 15.33H7.85291V15.93H10.1439V15.33ZM7.56076 15.5618L7.32492 16.5726L7.90923 16.7089L8.14507 15.6982L7.56076 15.5618ZM7.61707 16.9407H9.90809V16.3407H7.61707V16.9407ZM9.61611 16.5719L8.43691 21.5694L9.02087 21.7072L10.2001 16.7096L9.61611 16.5719ZM8.43639 21.5717C8.03329 23.3408 7.64685 24.7512 7.27773 25.8069L7.84411 26.0049C8.22369 24.9193 8.6159 23.4846 9.02139 21.705L8.43639 21.5717ZM7.27773 25.8069C6.90321 26.878 6.59273 27.5677 6.35001 27.9116L6.84019 28.2576C7.13654 27.8378 7.46993 27.075 7.84411 26.0049L7.27773 25.8069ZM6.46736 28.356L7.04012 28.6256L7.29559 28.0827L6.72284 27.8131L6.46736 28.356ZM22.2616 10.0709L22.1667 9.78632L22.1359 9.79658L22.108 9.8132L22.2616 10.0709ZM17.5897 14.8102L17.8563 14.9477L17.8566 14.9473L17.5897 14.8102ZM16.4218 23.525L16.128 23.5857L16.1281 23.5862L16.4218 23.525ZM17.1854 25.962L17.4602 25.8415L17.4597 25.8405L17.1854 25.962ZM18.2636 27.7701L18.5036 27.5901L18.4985 27.5834L18.4931 27.577L18.2636 27.7701ZM18.8925 27.6017L19.0492 27.8575L19.2429 27.7388L19.1812 27.5202L18.8925 27.6017ZM19.2294 16.0006L19.5085 16.1105L19.5087 16.1102L19.2294 16.0006ZM22.7108 10.61V10.31H22.5816L22.4928 10.4039L22.7108 10.61ZM22.7221 10.61V10.91H23.2075L22.9904 10.4758L22.7221 10.61ZM22.4862 10.2506L22.2411 10.4236L22.247 10.4319L22.2534 10.4398L22.4862 10.2506ZM22.2953 10.0597V9.75969H22.2466L22.2004 9.77509L22.2953 10.0597ZM22.108 9.8132C19.92 11.1169 18.3188 12.7352 17.3229 14.673L17.8566 14.9473C18.7923 13.1267 20.3057 11.5855 22.4152 10.3286L22.108 9.8132ZM17.3231 14.6726C16.3357 16.5862 15.841 18.6061 15.841 20.7286H16.441C16.441 18.7034 16.9121 16.7776 17.8563 14.9477L17.3231 14.6726ZM15.841 20.7286C15.841 21.7066 15.9365 22.6591 16.128 23.5857L16.7156 23.4643C16.5327 22.5791 16.441 21.6673 16.441 20.7286H15.841ZM16.1281 23.5862C16.3189 24.5023 16.5794 25.3353 16.9112 26.0836L17.4597 25.8405C17.1476 25.1363 16.899 24.3446 16.7155 23.4638L16.1281 23.5862ZM16.9107 26.0826C17.2409 26.8351 17.6142 27.4642 18.034 27.9633L18.4931 27.577C18.1193 27.1327 17.7738 26.5564 17.4602 25.8415L16.9107 26.0826ZM18.0236 27.9501C18.1231 28.0829 18.2693 28.1151 18.3759 28.1151V27.5151C18.3769 27.5151 18.3943 27.5151 18.4199 27.5253C18.4482 27.5366 18.4792 27.5577 18.5036 27.5901L18.0236 27.9501ZM18.3759 28.1151C18.4889 28.1151 18.6022 28.081 18.7038 28.039C18.8095 27.9953 18.9252 27.9335 19.0492 27.8575L18.7357 27.3459C18.6276 27.4122 18.5412 27.457 18.4747 27.4844C18.4041 27.5136 18.3752 27.5151 18.3759 27.5151V28.1151ZM19.1812 27.5202C18.6486 25.6341 18.3839 23.831 18.3839 22.11H17.7839C17.7839 23.8929 18.0582 25.7509 18.6038 27.6832L19.1812 27.5202ZM18.3839 22.11C18.3839 20.0129 18.759 18.0138 19.5085 16.1105L18.9502 15.8907C18.1725 17.8657 17.7839 19.9395 17.7839 22.11H18.3839ZM19.5087 16.1102C20.2571 14.2023 21.3957 12.4376 22.9288 10.8161L22.4928 10.4039C20.9113 12.0766 19.729 13.9057 18.9501 15.891L19.5087 16.1102ZM22.7108 10.91H22.7221V10.31H22.7108V10.91ZM22.9904 10.4758C22.9193 10.3338 22.8281 10.1957 22.719 10.0614L22.2534 10.4398C22.3389 10.5451 22.405 10.6466 22.4537 10.7441L22.9904 10.4758ZM22.7313 10.0776C22.6825 10.0085 22.6328 9.94482 22.5832 9.89529C22.5586 9.87067 22.5266 9.842 22.4881 9.81775C22.4536 9.79599 22.3856 9.75969 22.2953 9.75969V10.3597C22.2577 10.3597 22.2279 10.3518 22.2085 10.3448C22.1891 10.3378 22.1756 10.33 22.1684 10.3255C22.1552 10.3172 22.1518 10.3124 22.159 10.3196C22.1651 10.3256 22.1753 10.3368 22.1899 10.3551C22.2043 10.373 22.2214 10.3956 22.2411 10.4236L22.7313 10.0776ZM22.2004 9.77509L22.1667 9.78632L22.3565 10.3555L22.3902 10.3443L22.2004 9.77509ZM42.308 27.7701L42.4029 28.0547L42.4337 28.0445L42.4615 28.0279L42.308 27.7701ZM46.9799 23.0421L47.2465 23.1797L47.2467 23.1792L46.9799 23.0421ZM48.1478 14.3273L47.854 14.388L47.8541 14.3885L48.1478 14.3273ZM47.3842 11.879L47.1094 11.9996L47.1099 12.0006L47.3842 11.879ZM46.306 10.0709L46.066 10.2509L46.0711 10.2576L46.0765 10.2641L46.306 10.0709ZM45.6771 10.2394L45.5204 9.9836L45.3267 10.1023L45.3884 10.3209L45.6771 10.2394ZM45.3402 21.8517L45.6194 21.9616L45.6195 21.9612L45.3402 21.8517ZM41.8588 27.2311V27.5311H41.988L42.0768 27.4372L41.8588 27.2311ZM41.8475 27.2311V26.9311H41.3621L41.5792 27.3652L41.8475 27.2311ZM42.0834 27.5905L42.3285 27.4174L42.3226 27.4092L42.3162 27.4013L42.0834 27.5905ZM42.2743 27.7814V28.0814H42.323L42.3692 28.066L42.2743 27.7814ZM42.4615 28.0279C44.6493 26.7243 46.2505 25.1099 47.2465 23.1797L46.7133 22.9045C45.7776 24.7178 44.2642 26.2554 42.1544 27.5124L42.4615 28.0279ZM47.2467 23.1792C48.2339 21.2584 48.7286 19.2349 48.7286 17.1124H48.1286C48.1286 19.1377 47.6575 21.0673 46.713 22.905L47.2467 23.1792ZM48.7286 17.1124C48.7286 16.1344 48.6331 15.1855 48.4415 14.2661L47.8541 14.3885C48.0369 15.2659 48.1286 16.1737 48.1286 17.1124H48.7286ZM48.4416 14.2666C48.2508 13.343 47.9903 12.5061 47.6584 11.7574L47.1099 12.0006C47.4219 12.7044 47.6705 13.4996 47.854 14.388L48.4416 14.2666ZM47.6589 11.7585C47.3287 11.0059 46.9554 10.3768 46.5356 9.87779L46.0765 10.2641C46.4503 10.7084 46.7958 11.2847 47.1094 11.9996L47.6589 11.7585ZM46.546 9.89092C46.4465 9.75819 46.3003 9.726 46.1937 9.726V10.326C46.1927 10.326 46.1753 10.326 46.1497 10.3158C46.1214 10.3045 46.0904 10.2834 46.066 10.2509L46.546 9.89092ZM46.1937 9.726C46.0807 9.726 45.9674 9.76009 45.8658 9.80207C45.7601 9.84573 45.6443 9.90761 45.5204 9.9836L45.8339 10.4952C45.942 10.4289 46.0284 10.3841 46.0949 10.3566C46.1655 10.3275 46.1944 10.326 46.1937 10.326V9.726ZM45.3884 10.3209C45.921 12.207 46.1857 14.0101 46.1857 15.7311H46.7857C46.7857 13.9482 46.5114 12.0901 45.9658 10.1579L45.3884 10.3209ZM46.1857 15.7311C46.1857 17.8282 45.8106 19.8311 45.0609 21.7421L45.6195 21.9612C46.3971 19.979 46.7857 17.9016 46.7857 15.7311H46.1857ZM45.0611 21.7418C44.3126 23.6422 43.1741 25.4032 41.6408 27.025L42.0768 27.4372C43.6581 25.7646 44.8404 23.9394 45.6194 21.9616L45.0611 21.7418ZM41.8588 26.9311H41.8475V27.5311H41.8588V26.9311ZM41.5792 27.3652C41.6502 27.5073 41.7415 27.6454 41.8505 27.7796L42.3162 27.4013C42.2306 27.296 42.1646 27.1944 42.1159 27.0969L41.5792 27.3652ZM41.8383 27.7635C41.8871 27.8325 41.9368 27.8962 41.9864 27.9458C42.011 27.9704 42.043 27.9991 42.0815 28.0233C42.116 28.0451 42.184 28.0814 42.2743 28.0814V27.4814C42.3119 27.4814 42.3417 27.4893 42.3611 27.4963C42.3805 27.5033 42.394 27.5111 42.4012 27.5156C42.4144 27.5239 42.4178 27.5287 42.4106 27.5215C42.4045 27.5154 42.3943 27.5042 42.3797 27.486C42.3653 27.4681 42.3482 27.4455 42.3285 27.4174L41.8383 27.7635ZM42.3692 28.066L42.4029 28.0547L42.2131 27.4855L42.1794 27.4968L42.3692 28.066Z" fill="#C6C6CA"/>
<defs>
<radialGradient id="paint0_radial" cx="0" cy="0" r="1" gradientUnits="userSpaceOnUse" gradientTransform="translate(28.8385 18.0951) rotate(90) scale(17.4402)">
<stop stop-color="#343434"/>
<stop offset="0.776042" stop-color="#212121" stop-opacity="0"/>
</radialGradient>
</defs>
</svg>
