<svg width="56" height="37" viewBox="0 0 56 37" fill="none" xmlns="http://www.w3.org/2000/svg">
<path d="M28.8385 35.5353C38.4705 35.5353 46.2787 27.7271 46.2787 18.0951C46.2787 8.46315 38.4705 0.654907 28.8385 0.654907C19.2065 0.654907 11.3983 8.46315 11.3983 18.0951C11.3983 27.7271 19.2065 35.5353 28.8385 35.5353Z" fill="url(#paint0_radial)"/>
<path d="M36.8452 19.8097H26.8363" stroke="#6C706C" stroke-width="3" stroke-linecap="round"/>
<path d="M31.2699 25.1725V15.1637" stroke="#6C706C" stroke-width="3" stroke-linecap="round"/>
<path d="M35.2744 14.2345H27.4779C26.0972 14.2345 24.9779 15.3538 24.9779 16.7345V22.6726C24.9779 24.0533 26.0972 25.1726 27.4779 25.1726H35.2744C36.6551 25.1726 37.7744 24.0533 37.7744 22.6726V16.7345C37.7744 15.3538 36.6551 14.2345 35.2744 14.2345Z" stroke="#6C6F6C" stroke-width="3"/>
<path d="M5.16784 28.3541C5.85665 28.0846 6.41068 27.6541 6.82995 27.0626C7.25671 26.4786 7.5824 25.8235 7.807 25.0973C8.03909 24.3711 8.29369 23.3903 8.57069 22.1549C8.62309 21.9078 8.70919 21.5297 8.82899 21.0206L9.87339 16.6407H12.5575L12.8046 15.63H10.098C9.93329 15.1658 9.85099 14.6642 9.85099 14.1251C9.85099 13.616 9.92209 13.1331 10.0643 12.6764C10.2141 12.2122 10.42 11.8378 10.682 11.5533C10.9441 11.2688 11.2398 11.1266 11.5692 11.1266C11.8013 11.1266 11.9847 11.1977 12.1195 11.34C12.2543 11.4747 12.3928 11.6769 12.535 11.9464C12.6773 12.201 12.8083 12.3956 12.9281 12.5304C13.0554 12.6577 13.2238 12.7213 13.4335 12.7213C13.7105 12.7213 13.9314 12.6427 14.0961 12.4855C14.2683 12.3208 14.3544 12.1336 14.3544 11.924C14.3544 11.5047 14.2421 11.1678 14.0175 10.9132C13.8003 10.6512 13.5308 10.4677 13.2089 10.3629C12.8944 10.2506 12.5837 10.1945 12.2767 10.1945C11.2136 10.1945 10.3788 10.5389 9.77229 11.2277C9.16589 11.909 8.72789 12.8823 8.45839 14.1476L8.14389 15.63H5.8529L5.61706 16.6407H7.90808L6.72888 21.6383C6.32458 23.4127 5.93526 24.8352 5.56091 25.9059C5.18656 26.9765 4.86462 27.7028 4.59509 28.0846L5.16784 28.3541ZM22.2616 10.0709C20.1128 11.3512 18.5555 12.9309 17.5897 14.8102C16.6239 16.6819 16.141 18.6547 16.141 20.7286C16.141 21.687 16.2346 22.6191 16.4218 23.525C16.6089 24.4235 16.8635 25.2358 17.1854 25.962C17.5074 26.6958 17.8667 27.2985 18.2636 27.7701C18.286 27.8001 18.3235 27.8151 18.3759 27.8151C18.4882 27.8151 18.6604 27.7439 18.8925 27.6017C18.3534 25.6925 18.0839 23.8619 18.0839 22.11C18.0839 19.9762 18.4657 17.9397 19.2294 16.0006C19.993 14.054 21.1535 12.2571 22.7108 10.61H22.7221C22.6622 10.4902 22.5835 10.3704 22.4862 10.2506C22.3964 10.1233 22.3327 10.0597 22.2953 10.0597L22.2616 10.0709ZM42.308 27.7701C44.4568 26.4899 46.014 24.9139 46.9799 23.0421C47.9457 21.1629 48.4286 19.1863 48.4286 17.1124C48.4286 16.1541 48.335 15.2257 48.1478 14.3273C47.9607 13.4213 47.7061 12.6053 47.3842 11.879C47.0622 11.1453 46.7028 10.5426 46.306 10.0709C46.2836 10.041 46.2461 10.026 46.1937 10.026C46.0814 10.026 45.9092 10.0971 45.6771 10.2394C46.2162 12.1486 46.4857 13.9791 46.4857 15.7311C46.4857 17.8649 46.1039 19.9051 45.3402 21.8517C44.5765 23.7908 43.4161 25.5839 41.8588 27.2311H41.8475C41.9074 27.3509 41.9861 27.4707 42.0834 27.5905C42.1732 27.7177 42.2369 27.7814 42.2743 27.7814L42.308 27.7701Z" fill="#C6C6CA"/>
<path d="M17 12L14 8.5L15.5 8L17 12Z" fill="#C6C6CA"/>
<path d="M5.16785 28.3541L5.04012 28.6256L5.15694 28.6805L5.27717 28.6335L5.16785 28.3541ZM6.82996 27.0626L6.58772 26.8856L6.58522 26.8891L6.82996 27.0626ZM7.80701 25.0973L7.52124 25.006L7.52041 25.0086L7.80701 25.0973ZM8.5707 22.1549L8.8634 22.2206L8.8642 22.2172L8.5707 22.1549ZM9.8734 16.6407V16.3407H9.6365L9.5816 16.5712L9.8734 16.6407ZM12.5575 16.6407V16.9407H12.793L12.8489 16.712L12.5575 16.6407ZM12.8046 15.63L13.096 15.7012L13.1867 15.33H12.8046V15.63ZM10.098 15.63L9.8153 15.7303L9.8862 15.93H10.098V15.63ZM10.0643 12.6764L9.7788 12.5843L9.7779 12.5872L10.0643 12.6764ZM12.1195 11.34L11.9016 11.5464L11.9074 11.5521L12.1195 11.34ZM12.535 11.9464L12.2697 12.0865L12.2732 12.0928L12.535 11.9464ZM12.9281 12.5304L12.7039 12.7297L12.7097 12.7363L12.716 12.7425L12.9281 12.5304ZM14.0175 10.9132L13.7863 11.1047L13.7925 11.1117L14.0175 10.9132ZM13.2089 10.3629L13.1079 10.6456L13.116 10.6482L13.2089 10.3629ZM9.7723 11.2277L9.9964 11.4271L9.9975 11.4259L9.7723 11.2277ZM8.1439 15.63V15.93H8.387L8.4374 15.6923L8.1439 15.63ZM5.85291 15.63V15.33H5.61485L5.56076 15.5618L5.85291 15.63ZM5.61707 16.6407L5.32492 16.5726L5.23901 16.9407H5.61707V16.6407ZM7.90809 16.6407L8.2001 16.7096L8.2871 16.3407H7.90809V16.6407ZM6.72889 21.6383L6.4369 21.5694L6.43639 21.5717L6.72889 21.6383ZM4.5951 28.0846L4.35001 27.9116L4.14377 28.2038L4.46736 28.356L4.5951 28.0846ZM5.27717 28.6335C6.01931 28.3431 6.62087 27.8763 7.07471 27.2361L6.58522 26.8891C6.20051 27.4318 5.694 27.8261 5.05853 28.0748L5.27717 28.6335ZM7.07218 27.2396C7.5195 26.6275 7.85971 25.9422 8.0936 25.1859L7.52041 25.0086C7.3051 25.7048 6.99391 26.3298 6.58772 26.8856L7.07218 27.2396ZM8.0928 25.1886C8.3288 24.4502 8.5855 23.4598 8.8634 22.2206L8.278 22.0893C8.0018 23.3208 7.74946 24.2919 7.52124 25.006L8.0928 25.1886ZM8.8642 22.2172C8.9158 21.9735 9.0013 21.5981 9.121 21.0893L8.5372 20.951C8.4173 21.4605 8.3303 21.8422 8.2772 22.0927L8.8642 22.2172ZM9.121 21.0893L10.1652 16.7103L9.5816 16.5712L8.5372 20.951L9.121 21.0893ZM9.8734 16.9407H12.5575V16.3407H9.8734V16.9407ZM12.8489 16.712L13.096 15.7012L12.5132 15.5588L12.2661 16.5695L12.8489 16.712ZM12.8046 15.33H10.098V15.93H12.8046V15.33ZM10.3808 15.5297C10.2285 15.1006 10.151 14.6332 10.151 14.1251H9.551C9.551 14.6951 9.6381 15.231 9.8153 15.7303L10.3808 15.5297ZM10.151 14.1251C10.151 13.6443 10.2181 13.1916 10.3508 12.7656L9.7779 12.5872C9.6261 13.0746 9.551 13.5877 9.551 14.1251H10.151ZM10.3499 12.7685C10.4896 12.3352 10.6767 12.002 10.9027 11.7566L10.4614 11.3501C10.1633 11.6737 9.9385 12.0892 9.7788 12.5843L10.3499 12.7685ZM10.9027 11.7566C11.1187 11.522 11.3384 11.4266 11.5692 11.4266V10.8266C11.1412 10.8266 10.7694 11.0157 10.4614 11.3501L10.9027 11.7566ZM11.5692 11.4266C11.7354 11.4266 11.8339 11.4749 11.9016 11.5464L12.3373 11.1336C12.1355 10.9206 11.8672 10.8266 11.5692 10.8266V11.4266ZM11.9074 11.5521C12.0121 11.6568 12.1342 11.8297 12.2697 12.0865L12.8004 11.8064C12.6514 11.5242 12.4965 11.2926 12.3316 11.1278L11.9074 11.5521ZM12.2732 12.0928C12.4204 12.3562 12.5636 12.5719 12.7039 12.7297L13.1523 12.3311C13.053 12.2194 12.9342 12.0457 12.7969 11.8001L12.2732 12.0928ZM12.716 12.7425C12.9088 12.9353 13.1584 13.0213 13.4335 13.0213V12.4213C13.2893 12.4213 13.202 12.38 13.1402 12.3183L12.716 12.7425ZM13.4335 13.0213C13.77 13.0213 14.0711 12.924 14.3032 12.7025L13.8889 12.2685C13.7916 12.3614 13.651 12.4213 13.4335 12.4213V13.0213ZM14.3032 12.7025C14.5257 12.4896 14.6544 12.227 14.6544 11.924H14.0544C14.0544 12.0402 14.0108 12.1519 13.8889 12.2685L14.3032 12.7025ZM14.6544 11.924C14.6544 11.4495 14.526 11.0362 14.2424 10.7147L13.7925 11.1117C13.9581 11.2994 14.0544 11.5599 14.0544 11.924H14.6544ZM14.2485 10.7218C13.9953 10.4163 13.678 10.2001 13.3017 10.0777L13.116 10.6482C13.3836 10.7353 13.6052 10.8862 13.7863 11.1047L14.2485 10.7218ZM13.3098 10.0804C12.9658 9.95754 12.621 9.89446 12.2767 9.89446V10.4945C12.5464 10.4945 12.823 10.5439 13.1079 10.6456L13.3098 10.0804ZM12.2767 9.89446C11.1425 9.89446 10.2198 10.2654 9.5472 11.0294L9.9975 11.4259C10.5377 10.8123 11.2847 10.4945 12.2767 10.4945V9.89446ZM9.5483 11.0282C8.8957 11.7613 8.4411 12.789 8.165 14.0851L8.7518 14.2101C9.0148 12.9756 9.4361 12.0567 9.9964 11.4271L9.5483 11.0282ZM8.165 14.0851L7.85046 15.5678L8.4374 15.6923L8.7518 14.2101L8.165 14.0851ZM8.1439 15.33H5.85291V15.93H8.1439V15.33ZM5.56076 15.5618L5.32492 16.5726L5.90923 16.7089L6.14507 15.6982L5.56076 15.5618ZM5.61707 16.9407H7.90809V16.3407H5.61707V16.9407ZM7.61611 16.5719L6.4369 21.5694L7.02087 21.7072L8.2001 16.7096L7.61611 16.5719ZM6.43639 21.5717C6.03329 23.3408 5.64685 24.7512 5.27773 25.8069L5.84411 26.0049C6.22369 24.9193 6.6159 23.4846 7.02139 21.705L6.43639 21.5717ZM5.27773 25.8069C4.90321 26.878 4.59273 27.5677 4.35001 27.9116L4.84019 28.2576C5.13654 27.8378 5.46993 27.075 5.84411 26.0049L5.27773 25.8069ZM4.46736 28.356L5.04012 28.6256L5.29559 28.0827L4.72284 27.8131L4.46736 28.356ZM22.2616 10.0709L22.1667 9.78632L22.1359 9.79658L22.108 9.8132L22.2616 10.0709ZM17.1854 25.962L17.4602 25.8415L17.4597 25.8405L17.1854 25.962ZM18.2636 27.7701L18.5036 27.5901L18.4985 27.5834L18.4931 27.577L18.2636 27.7701ZM18.8925 27.6017L19.0492 27.8575L19.2429 27.7388L19.1812 27.5202L18.8925 27.6017ZM22.7108 10.61V10.31H22.5816L22.4928 10.4039L22.7108 10.61ZM22.7221 10.61V10.91H23.2075L22.9904 10.4758L22.7221 10.61ZM22.4862 10.2506L22.2411 10.4236L22.247 10.4319L22.2534 10.4398L22.4862 10.2506ZM22.2953 10.0597V9.75969H22.2466L22.2004 9.77509L22.2953 10.0597ZM22.108 9.8132C19.92 11.1169 18.3188 12.7352 17.3229 14.673L17.8563 14.9477C18.792 13.1271 20.3057 11.5855 22.4152 10.3286L22.108 9.8132ZM17.3229 14.673C16.3355 16.5866 15.841 18.6061 15.841 20.7286H16.441C16.441 18.7034 16.9121 16.7776 17.8563 14.9477L17.3229 14.673ZM15.841 20.7286C15.841 21.7066 15.9365 22.6591 16.128 23.5857L16.7156 23.4643C16.5327 22.5791 16.441 21.6673 16.441 20.7286H15.841ZM16.128 23.5857C16.3188 24.5018 16.5794 25.3353 16.9112 26.0836L17.4597 25.8405C17.1476 25.1363 16.8991 24.3451 16.7156 23.4643L16.128 23.5857ZM16.9107 26.0826C17.2409 26.8351 17.6142 27.4642 18.034 27.9633L18.4931 27.577C18.1193 27.1327 17.7738 26.5564 17.4602 25.8415L16.9107 26.0826ZM18.0236 27.9501C18.1231 28.0829 18.2693 28.1151 18.3759 28.1151V27.5151C18.3759 27.5151 18.3943 27.5151 18.4199 27.5253C18.4482 27.5366 18.4792 27.5577 18.5036 27.5901L18.0236 27.9501ZM18.3759 28.1151C18.4889 28.1151 18.6022 28.081 18.7038 28.039C18.8095 27.9953 18.9252 27.9335 19.0492 27.8575L18.7357 27.3459C18.6276 27.4122 18.5412 27.457 18.4747 27.4844C18.4041 27.5136 18.3759 27.5151 18.3759 27.5151V28.1151ZM19.1812 27.5202C18.6486 25.6341 18.3839 23.831 18.3839 22.11H17.7839C17.7839 23.8929 18.0582 25.7509 18.6038 27.6832L19.1812 27.5202ZM18.3839 22.11C18.3839 20.0129 18.759 18.0138 19.5085 16.1105L18.9502 15.8907C18.1725 17.8657 17.7839 19.9395 17.7839 22.11H18.3839ZM19.5085 16.1105C20.2569 14.2026 21.3957 12.4376 22.9288 10.8161L22.4928 10.4039C20.9113 12.0766 19.7291 13.9054 18.9502 15.8907L19.5085 16.1105ZM22.7108 10.91H22.7221V10.31H22.7108V10.91ZM22.9904 10.4758C22.9193 10.3338 22.8281 10.1957 22.719 10.0614L22.2534 10.4398C22.3389 10.5451 22.405 10.6466 22.4537 10.7441L22.9904 10.4758ZM22.7313 10.0776C22.6825 10.0085 22.6328 9.94482 22.5832 9.89529C22.5586 9.87067 22.5266 9.842 22.4881 9.81775C22.4536 9.79599 22.3856 9.75969 22.2953 9.75969V10.3597C22.2577 10.3597 22.2279 10.3518 22.2085 10.3448C22.1891 10.3378 22.1756 10.33 22.1684 10.3255C22.1552 10.3172 22.1518 10.3124 22.159 10.3196C22.1651 10.3256 22.1753 10.3368 22.1899 10.3551C22.2043 10.373 22.2214 10.3956 22.2411 10.4236L22.7313 10.0776ZM22.2004 9.77509L22.1667 9.78632L22.3565 10.3555L22.3902 10.3443L22.2004 9.77509ZM42.308 27.7701L42.4029 28.0547L42.4337 28.0445L42.4615 28.0279L42.308 27.7701ZM47.3842 11.879L47.1094 11.9996L47.1099 12.0006L47.3842 11.879ZM46.306 10.0709L46.066 10.2509L46.0711 10.2576L46.0765 10.2641L46.306 10.0709ZM45.6771 10.2394L45.5204 9.9836L45.3267 10.1023L45.3884 10.3209L45.6771 10.2394ZM41.8588 27.2311V27.5311H41.988L42.0768 27.4372L41.8588 27.2311ZM41.8475 27.2311V26.9311H41.3621L41.5792 27.3652L41.8475 27.2311ZM42.0834 27.5905L42.3285 27.4174L42.3226 27.4092L42.3162 27.4013L42.0834 27.5905ZM42.2743 27.7814V28.0814H42.323L42.3692 28.066L42.2743 27.7814ZM42.4615 28.0279C44.6493 26.7243 46.2505 25.1099 47.2465 23.1797L46.7133 22.9045C45.7776 24.7178 44.2642 26.2554 42.1544 27.5124L42.4615 28.0279ZM47.2465 23.1797C48.2337 21.2589 48.7286 19.2349 48.7286 17.1124H48.1286C48.1286 19.1377 47.6578 21.0668 46.7133 22.9045L47.2465 23.1797ZM48.7286 17.1124C48.7286 16.1344 48.6331 15.1855 48.4415 14.2661L47.854 14.388C48.0368 15.2654 48.1286 16.1737 48.1286 17.1124H48.7286ZM48.4415 14.2661C48.2507 13.3425 47.9903 12.5061 47.6584 11.7574L47.1099 12.0006C47.4219 12.7044 47.6705 13.4996 47.854 14.388L48.4415 14.2661ZM47.6589 11.7585C47.3287 11.0059 46.9554 10.3768 46.5356 9.87779L46.0765 10.2641C46.4503 10.7084 46.7958 11.2847 47.1094 11.9996L47.6589 11.7585ZM46.546 9.89092C46.4465 9.75819 46.3003 9.726 46.1937 9.726V10.326C46.1937 10.326 46.1753 10.326 46.1497 10.3158C46.1214 10.3045 46.0904 10.2834 46.066 10.2509L46.546 9.89092ZM46.1937 9.726C46.0807 9.726 45.9674 9.76009 45.8658 9.80207C45.7601 9.84573 45.6443 9.90761 45.5204 9.9836L45.8339 10.4952C45.942 10.4289 46.0284 10.3841 46.0949 10.3566C46.1655 10.3275 46.1937 10.326 46.1937 10.326V9.726ZM45.3884 10.3209C45.921 12.207 46.1857 14.0101 46.1857 15.7311H46.7857C46.7857 13.9482 46.5114 12.0901 45.9658 10.1579L45.3884 10.3209ZM46.1857 15.7311C46.1857 17.8282 45.8106 19.8311 45.0609 21.7421L45.6194 21.9616C46.397 19.9794 46.7857 17.9016 46.7857 15.7311H46.1857ZM45.0609 21.7421C44.3124 23.6425 43.1741 25.4032 41.6408 27.025L42.0768 27.4372C43.6581 25.7646 44.8404 23.9394 45.6194 21.9616L45.0609 21.7421ZM41.8588 26.9311H41.8475V27.5311H41.8588V26.9311ZM41.5792 27.3652C41.6502 27.5073 41.7415 27.6454 41.8505 27.7796L42.3162 27.4013C42.2306 27.296 42.1646 27.1944 42.1159 27.0969L41.5792 27.3652ZM41.8383 27.7635C41.8871 27.8325 41.9368 27.8962 41.9864 27.9458C42.011 27.9704 42.043 27.9991 42.0815 28.0233C42.116 28.0451 42.184 28.0814 42.2743 28.0814V27.4814C42.3119 27.4814 42.3417 27.4893 42.3611 27.4963C42.3805 27.5033 42.394 27.5111 42.4012 27.5156C42.4144 27.5239 42.4178 27.5287 42.4106 27.5215C42.4045 27.5154 42.3943 27.5042 42.3797 27.486C42.3653 27.4681 42.3482 27.4455 42.3285 27.4174L41.8383 27.7635ZM42.3692 28.066L42.4029 28.0547L42.2131 27.4855L42.1794 27.4968L42.3692 28.066Z" fill="#C6C6CA"/>
<defs>
<radialGradient id="paint0_radial" cx="0" cy="0" r="1" gradientUnits="userSpaceOnUse" gradientTransform="translate(28.8385 18.0951) rotate(90) scale(17.4402)">
<stop stop-color="#343434"/>
<stop offset="0.776042" stop-color="#212121" stop-opacity="0"/>
</radialGradient>
</defs>
</svg>
