<svg width="56" height="37" viewBox="0 0 56 37" fill="none" xmlns="http://www.w3.org/2000/svg">
<path d="M28.8385 35.5353C38.4705 35.5353 46.2787 27.7271 46.2787 18.0951C46.2787 8.46315 38.4705 0.654907 28.8385 0.654907C19.2065 0.654907 11.3983 8.46315 11.3983 18.0951C11.3983 27.7271 19.2065 35.5353 28.8385 35.5353Z" fill="url(#paint0_radial)"/>
<path d="M36.8452 19.8097H26.8363" stroke="#6C706C" stroke-width="3" stroke-linecap="round"/>
<path d="M31.2699 25.1725V15.1637" stroke="#6C706C" stroke-width="3" stroke-linecap="round"/>
<path d="M35.2744 14.2345H27.4779C26.0972 14.2345 24.9779 15.3538 24.9779 16.7345V22.6726C24.9779 24.0533 26.0972 25.1726 27.4779 25.1726H35.2744C36.6551 25.1726 37.7744 24.0533 37.7744 22.6726V16.7345C37.7744 15.3538 36.6551 14.2345 35.2744 14.2345Z" stroke="#6C6F6C" stroke-width="3"/>
<path d="M15.3237 24.4775C15.3237 25.3242 15.6392 25.7476 16.27 25.7476C16.7238 25.7476 17.0641 25.6175 17.291 25.3574C17.5622 25.0531 17.7144 24.5218 17.7476 23.7637L18.1709 13.0723C18.2318 11.473 18.68 10.2445 19.5156 9.38672C20.2074 8.67285 21.0596 8.31592 22.0723 8.31592C22.6533 8.31592 23.0877 8.4515 23.3755 8.72266C23.6688 8.99382 23.8154 9.35352 23.8154 9.80176C23.8154 10.3496 23.6494 10.7536 23.3174 11.0137C23.2288 11.1243 23.0601 11.1797 22.811 11.1797C22.5675 11.1797 22.4458 11.1077 22.4458 10.9639C22.4458 10.1227 22.1304 9.70215 21.4995 9.70215C21.0291 9.70215 20.6777 9.82943 20.4453 10.084C20.1631 10.3994 20.022 10.9307 20.022 11.6777L19.5986 22.3691C19.5212 24.4443 18.835 25.8776 17.54 26.6689C17.0309 26.9788 16.4969 27.1338 15.938 27.1338C15.036 27.1338 14.4245 26.8405 14.1035 26.2539C14.0039 26.0713 13.9541 25.8831 13.9541 25.6895C13.9541 25.4958 13.9707 25.3325 14.0039 25.1997C14.0371 25.0669 14.0786 24.9507 14.1284 24.8511C14.217 24.674 14.3249 24.5356 14.4521 24.436C14.5352 24.3254 14.7012 24.27 14.9502 24.27C15.1992 24.27 15.3237 24.3392 15.3237 24.4775Z" fill="#C6C6CA"/>
<path d="M17.291 25.3574L16.9177 25.0248L16.9142 25.0287L17.291 25.3574ZM17.7476 23.7637L18.2471 23.7855L18.2472 23.7835L17.7476 23.7637ZM18.1709 13.0723L18.6705 13.092L18.6705 13.0913L18.1709 13.0723ZM19.5156 9.38672L19.8738 9.73562L19.8747 9.73466L19.5156 9.38672ZM23.3755 8.72266L23.0326 9.08657L23.0361 9.08979L23.3755 8.72266ZM23.3174 11.0137L23.0091 10.6201L22.9633 10.6559L22.9269 10.7013L23.3174 11.0137ZM20.4453 10.084L20.0761 9.74683L20.0727 9.75059L20.4453 10.084ZM20.022 11.6777L20.5216 11.6975L20.522 11.6876V11.6777H20.022ZM19.5986 22.3691L19.099 22.3494L19.099 22.3505L19.5986 22.3691ZM17.54 26.6689L17.8 27.096L17.8008 27.0956L17.54 26.6689ZM14.1035 26.2539L13.6646 26.4933L13.6649 26.4939L14.1035 26.2539ZM14.4521 24.436L14.7603 24.8298L14.8124 24.789L14.8521 24.736L14.4521 24.436ZM14.8237 24.4775C14.8237 24.9484 14.9089 25.3926 15.1594 25.7288C15.4304 26.0926 15.8314 26.2476 16.27 26.2476V25.2476C16.0778 25.2476 16.0056 25.1909 15.9612 25.1313C15.8963 25.0441 15.8237 24.8533 15.8237 24.4775H14.8237ZM16.27 26.2476C16.82 26.2476 17.3183 26.0868 17.6678 25.6861L16.9142 25.0287C16.81 25.1482 16.6276 25.2476 16.27 25.2476V26.2476ZM17.6643 25.69C18.0547 25.2518 18.2126 24.572 18.2471 23.7855L17.248 23.7418C17.2161 24.4716 17.0696 24.8543 16.9177 25.0248L17.6643 25.69ZM18.2472 23.7835L18.6705 13.092L17.6713 13.0525L17.248 23.7439L18.2472 23.7835ZM18.6705 13.0913C18.7283 11.5734 19.1501 10.4785 19.8738 9.73562L19.1575 9.03782C18.2099 10.0105 17.7352 11.3726 17.6713 13.0532L18.6705 13.0913ZM19.8747 9.73466C20.4703 9.12003 21.192 8.81592 22.0723 8.81592V7.81592C20.9271 7.81592 19.9444 8.22568 19.1565 9.03878L19.8747 9.73466ZM22.0723 8.81592C22.585 8.81592 22.8732 8.93632 23.0326 9.08655L23.7184 8.35876C23.3023 7.96668 22.7217 7.81592 22.0723 7.81592V8.81592ZM23.0361 9.08979C23.2139 9.25423 23.3154 9.47408 23.3154 9.80176H24.3154C24.3154 9.23295 24.1236 8.7334 23.7149 8.35552L23.0361 9.08979ZM23.3154 9.80176C23.3154 10.2458 23.1856 10.4818 23.0091 10.6201L23.6257 11.4073C24.1132 11.0254 24.3154 10.4534 24.3154 9.80176H23.3154ZM22.9269 10.7013C22.9571 10.6636 22.984 10.658 22.9686 10.6631C22.9502 10.6691 22.9022 10.6797 22.811 10.6797V11.6797C23.102 11.6797 23.4722 11.6205 23.7078 11.326L22.9269 10.7013ZM22.811 10.6797C22.7733 10.6797 22.7537 10.6768 22.7479 10.6756C22.7413 10.6743 22.7604 10.6769 22.7915 10.6953C22.8257 10.7155 22.8704 10.7529 22.9041 10.8126C22.9376 10.8719 22.9458 10.9278 22.9458 10.9639H21.9458C21.9458 11.2088 22.0664 11.4283 22.2827 11.5562C22.458 11.6597 22.6564 11.6797 22.811 11.6797V10.6797ZM22.9458 10.9639C22.9458 10.4952 22.8605 10.0526 22.6092 9.71758C22.3377 9.35554 21.9369 9.20215 21.4995 9.20215V10.2021C21.6929 10.2021 21.7653 10.259 21.8092 10.3176C21.8734 10.4032 21.9458 10.5914 21.9458 10.9639H22.9458ZM21.4995 9.20215C20.9419 9.20215 20.434 9.35484 20.0761 9.74685L20.8146 10.4211C20.9215 10.304 21.1164 10.2021 21.4995 10.2021V9.20215ZM20.0727 9.75059C19.6653 10.2059 19.522 10.893 19.522 11.6777H20.522C20.522 10.9683 20.6609 10.5929 20.8179 10.4174L20.0727 9.75059ZM19.5224 11.658L19.099 22.3494L20.0982 22.3889L20.5216 11.6975L19.5224 11.658ZM19.099 22.3505C19.0252 24.326 18.3817 25.5686 17.2793 26.2423L17.8008 27.0956C19.2882 26.1866 20.0171 24.5627 20.0983 22.3878L19.099 22.3505ZM17.2801 26.2418C16.8439 26.5074 16.3991 26.6338 15.938 26.6338V27.6338C16.5947 27.6338 17.218 27.4503 17.8 27.096L17.2801 26.2418ZM15.938 26.6338C15.1457 26.6338 14.7452 26.385 14.5421 26.0139L13.6649 26.4939C14.1038 27.296 14.9263 27.6338 15.938 27.6338V26.6338ZM14.5425 26.0145C14.4799 25.8997 14.4541 25.7933 14.4541 25.6895H13.4541C13.4541 25.9729 13.5279 26.2429 13.6646 26.4933L14.5425 26.0145ZM14.4541 25.6895C14.4541 25.5212 14.4688 25.4015 14.489 25.321L13.5188 25.0784C13.4726 25.2635 13.4541 25.4703 13.4541 25.6895H14.4541ZM14.489 25.321C14.5153 25.2158 14.5454 25.1352 14.5756 25.0747L13.6812 24.6275C13.6119 24.7661 13.559 24.918 13.5188 25.0784L14.489 25.321ZM14.5756 25.0747C14.6383 24.9493 14.7031 24.8746 14.7603 24.8298L14.144 24.0423C13.9467 24.1967 13.7956 24.3987 13.6812 24.6275L14.5756 25.0747ZM14.8521 24.736C14.8182 24.7813 14.7849 24.7899 14.797 24.7859C14.8125 24.7807 14.8586 24.77 14.9502 24.77V23.77C14.6642 23.77 14.2838 23.8271 14.0521 24.136L14.8521 24.736ZM14.9502 24.77C14.9907 24.77 15.0135 24.7729 15.0226 24.7746C15.0327 24.7765 15.0165 24.7751 14.9875 24.759C14.9557 24.7413 14.9086 24.7056 14.8716 24.644C14.8342 24.5816 14.8237 24.5203 14.8237 24.4775H15.8237C15.8237 24.3656 15.7977 24.2438 15.7291 24.1295C15.661 24.016 15.5673 23.9371 15.4732 23.8848C15.3 23.7886 15.1046 23.77 14.9502 23.77V24.77Z" fill="#C6C6CA"/>
<defs>
<radialGradient id="paint0_radial" cx="0" cy="0" r="1" gradientUnits="userSpaceOnUse" gradientTransform="translate(28.8385 18.0951) rotate(90) scale(17.4402)">
<stop stop-color="#343434"/>
<stop offset="0.776042" stop-color="#212121" stop-opacity="0"/>
</radialGradient>
</defs>
</svg>
