<svg width="187" height="112" viewBox="0 0 187 112" fill="none" xmlns="http://www.w3.org/2000/svg">
<path d="M73.3958 3.505C73.6058 3.83167 74.0374 4.46167 74.6908 5.395C75.3674 6.305 76.1374 7.36667 77.0008 8.58C77.8874 9.79333 78.8208 11.0883 79.8008 12.465C80.7808 13.8183 81.7024 15.1017 82.5658 16.315C83.4291 17.505 84.1758 18.5433 84.8058 19.43C85.4591 20.3167 85.8908 20.9 86.1008 21.18C86.1708 21.0633 86.3924 20.7483 86.7658 20.235C87.1391 19.7217 87.5941 19.08 88.1308 18.31C88.6908 17.54 89.3208 16.6767 90.0208 15.72C90.7208 14.74 91.4324 13.7483 92.1558 12.745C92.9024 11.7183 93.6258 10.7033 94.3258 9.7C95.0491 8.69667 95.7141 7.78667 96.3208 6.97C96.9274 6.13 97.4408 5.40667 97.8608 4.8C98.3041 4.17 98.6191 3.73833 98.8058 3.505V30H94.7458V15.79C94.7458 15.6033 94.7574 15.405 94.7808 15.195C94.8274 14.985 94.8508 14.8333 94.8508 14.74C94.6408 15.02 94.3024 15.4983 93.8358 16.175C93.3924 16.8283 92.8674 17.5867 92.2608 18.45C91.6774 19.29 91.0591 20.1883 90.4058 21.145C89.7524 22.0783 89.1341 22.965 88.5508 23.805C87.9674 24.645 87.4541 25.3917 87.0108 26.045C86.5674 26.675 86.2641 27.1183 86.1008 27.375C85.9374 27.165 85.6108 26.7333 85.1208 26.08C84.6541 25.4033 84.0941 24.6217 83.4408 23.735C82.8108 22.8483 82.1341 21.9033 81.4108 20.9C80.7108 19.8967 80.0574 18.9633 79.4508 18.1C78.8441 17.2367 78.3191 16.5017 77.8758 15.895C77.4324 15.265 77.1758 14.88 77.1058 14.74C77.1058 14.8333 77.1174 14.985 77.1408 15.195C77.1874 15.405 77.2108 15.6033 77.2108 15.79V30H73.3958V3.505ZM102.333 22.825C102.333 21.7517 102.531 20.7483 102.928 19.815C103.348 18.8583 103.908 18.03 104.608 17.33C105.308 16.6067 106.113 16.035 107.023 15.615C107.956 15.195 108.948 14.985 109.998 14.985C110.698 14.985 111.339 15.0783 111.923 15.265C112.506 15.4283 113.008 15.6383 113.428 15.895C113.848 16.1517 114.186 16.42 114.443 16.7C114.699 16.98 114.874 17.225 114.968 17.435L115.108 15.37H117.978V30H114.968V28.145C114.851 28.3317 114.664 28.5533 114.408 28.81C114.151 29.0667 113.813 29.3117 113.393 29.545C112.996 29.755 112.518 29.9417 111.958 30.105C111.398 30.2683 110.756 30.35 110.033 30.35C108.913 30.35 107.874 30.1517 106.918 29.755C105.984 29.335 105.179 28.7867 104.503 28.11C103.826 27.41 103.289 26.605 102.893 25.695C102.519 24.785 102.333 23.8283 102.333 22.825ZM105.343 22.65C105.343 23.3267 105.459 23.9567 105.693 24.54C105.949 25.1233 106.288 25.625 106.708 26.045C107.128 26.465 107.629 26.8033 108.213 27.06C108.796 27.2933 109.438 27.41 110.138 27.41C110.838 27.41 111.479 27.2933 112.063 27.06C112.669 26.8033 113.183 26.465 113.603 26.045C114.046 25.6017 114.384 25.1 114.618 24.54C114.851 23.9567 114.968 23.3267 114.968 22.65C114.968 21.9733 114.851 21.355 114.618 20.795C114.384 20.2117 114.046 19.71 113.603 19.29C113.183 18.87 112.669 18.5433 112.063 18.31C111.479 18.0533 110.838 17.925 110.138 17.925C109.438 17.925 108.796 18.0533 108.213 18.31C107.629 18.5433 107.128 18.87 106.708 19.29C106.288 19.71 105.949 20.2117 105.693 20.795C105.459 21.355 105.343 21.9733 105.343 22.65ZM123.441 8.93H126.416V15.405H130.336V18.065H126.416V30H123.441V18.065H120.816V15.405H123.441V8.93ZM132.81 2.805H135.785V18.905C136.299 17.7383 137.022 16.805 137.955 16.105C138.889 15.3817 140.09 15.0083 141.56 14.985C143.054 14.9617 144.244 15.3583 145.13 16.175C146.04 16.9917 146.519 18.0533 146.565 19.36V30H143.555V20.725C143.509 19.9783 143.252 19.3483 142.785 18.835C142.319 18.2983 141.584 18.0067 140.58 17.96C139.88 17.96 139.239 18.0883 138.655 18.345C138.072 18.5783 137.57 18.905 137.15 19.325C136.73 19.745 136.392 20.2467 136.135 20.83C135.902 21.4133 135.785 22.055 135.785 22.755V30H132.81V2.805ZM163.008 28.285C162.308 28.915 161.456 29.4167 160.453 29.79C159.45 30.1633 158.423 30.35 157.373 30.35C156.3 30.35 155.285 30.1517 154.328 29.755C153.395 29.335 152.578 28.7867 151.878 28.11C151.178 27.41 150.618 26.5933 150.198 25.66C149.801 24.7267 149.603 23.735 149.603 22.685C149.603 21.635 149.801 20.6433 150.198 19.71C150.618 18.7767 151.178 17.96 151.878 17.26C152.578 16.56 153.383 16.0117 154.293 15.615C155.226 15.195 156.218 14.985 157.268 14.985C158.925 14.985 160.36 15.4867 161.573 16.49C162.81 17.47 163.696 18.765 164.233 20.375C163.51 20.6317 162.681 20.9467 161.748 21.32C160.815 21.6933 159.846 22.09 158.843 22.51C157.84 22.9067 156.836 23.3033 155.833 23.7C154.83 24.0967 153.896 24.4583 153.033 24.785C153.43 25.5783 154.001 26.22 154.748 26.71C155.518 27.1767 156.37 27.41 157.303 27.41C157.933 27.41 158.563 27.2933 159.193 27.06C159.846 26.8267 160.371 26.5117 160.768 26.115L163.008 28.285ZM160.488 19.675C160.208 19.0917 159.765 18.66 159.158 18.38C158.551 18.0767 157.933 17.925 157.303 17.925C156.626 17.925 155.996 18.0533 155.413 18.31C154.853 18.5667 154.363 18.9167 153.943 19.36C153.523 19.78 153.185 20.27 152.928 20.83C152.695 21.39 152.578 21.9617 152.578 22.545C152.578 22.6617 152.578 22.7433 152.578 22.79C152.601 22.8367 152.613 22.8717 152.613 22.895C153.22 22.6617 153.873 22.405 154.573 22.125C155.296 21.8217 156.008 21.53 156.708 21.25C157.408 20.9467 158.085 20.6667 158.738 20.41C159.391 20.13 159.975 19.885 160.488 19.675ZM72.6316 38.505C72.8416 38.8317 73.2733 39.4617 73.9266 40.395C74.6033 41.305 75.3733 42.3667 76.2366 43.58C77.1233 44.7933 78.0566 46.0883 79.0366 47.465C80.0166 48.8183 80.9383 50.1017 81.8016 51.315C82.6649 52.505 83.4116 53.5433 84.0416 54.43C84.6949 55.3167 85.1266 55.9 85.3366 56.18C85.4066 56.0633 85.6283 55.7483 86.0016 55.235C86.3749 54.7217 86.8299 54.08 87.3666 53.31C87.9266 52.54 88.5566 51.6767 89.2566 50.72C89.9566 49.74 90.6683 48.7483 91.3916 47.745C92.1383 46.7183 92.8616 45.7033 93.5616 44.7C94.2849 43.6967 94.9499 42.7867 95.5566 41.97C96.1633 41.13 96.6766 40.4067 97.0966 39.8C97.5399 39.17 97.8549 38.7383 98.0416 38.505V65H93.9816V50.79C93.9816 50.6033 93.9933 50.405 94.0166 50.195C94.0633 49.985 94.0866 49.8333 94.0866 49.74C93.8766 50.02 93.5383 50.4983 93.0716 51.175C92.6283 51.8283 92.1033 52.5867 91.4966 53.45C90.9133 54.29 90.2949 55.1883 89.6416 56.145C88.9883 57.0783 88.3699 57.965 87.7866 58.805C87.2033 59.645 86.6899 60.3917 86.2466 61.045C85.8033 61.675 85.4999 62.1183 85.3366 62.375C85.1733 62.165 84.8466 61.7333 84.3566 61.08C83.8899 60.4033 83.3299 59.6217 82.6766 58.735C82.0466 57.8483 81.3699 56.9033 80.6466 55.9C79.9466 54.8967 79.2933 53.9633 78.6866 53.1C78.0799 52.2367 77.5549 51.5017 77.1116 50.895C76.6683 50.265 76.4116 49.88 76.3416 49.74C76.3416 49.8333 76.3533 49.985 76.3766 50.195C76.4233 50.405 76.4466 50.6033 76.4466 50.79V65H72.6316V38.505ZM101.568 57.825C101.568 56.7517 101.767 55.7483 102.163 54.815C102.583 53.8583 103.143 53.03 103.843 52.33C104.543 51.6067 105.348 51.035 106.258 50.615C107.192 50.195 108.183 49.985 109.233 49.985C109.933 49.985 110.575 50.0783 111.158 50.265C111.742 50.4283 112.243 50.6383 112.663 50.895C113.083 51.1517 113.422 51.42 113.678 51.7C113.935 51.98 114.11 52.225 114.203 52.435L114.343 50.37H117.213V65H114.203V63.145C114.087 63.3317 113.9 63.5533 113.643 63.81C113.387 64.0667 113.048 64.3117 112.628 64.545C112.232 64.755 111.753 64.9417 111.193 65.105C110.633 65.2683 109.992 65.35 109.268 65.35C108.148 65.35 107.11 65.1517 106.153 64.755C105.22 64.335 104.415 63.7867 103.738 63.11C103.062 62.41 102.525 61.605 102.128 60.695C101.755 59.785 101.568 58.8283 101.568 57.825ZM104.578 57.65C104.578 58.3267 104.695 58.9567 104.928 59.54C105.185 60.1233 105.523 60.625 105.943 61.045C106.363 61.465 106.865 61.8033 107.448 62.06C108.032 62.2933 108.673 62.41 109.373 62.41C110.073 62.41 110.715 62.2933 111.298 62.06C111.905 61.8033 112.418 61.465 112.838 61.045C113.282 60.6017 113.62 60.1 113.853 59.54C114.087 58.9567 114.203 58.3267 114.203 57.65C114.203 56.9733 114.087 56.355 113.853 55.795C113.62 55.2117 113.282 54.71 112.838 54.29C112.418 53.87 111.905 53.5433 111.298 53.31C110.715 53.0533 110.073 52.925 109.373 52.925C108.673 52.925 108.032 53.0533 107.448 53.31C106.865 53.5433 106.363 53.87 105.943 54.29C105.523 54.71 105.185 55.2117 104.928 55.795C104.695 56.355 104.578 56.9733 104.578 57.65ZM122.676 43.93H125.651V50.405H129.571V53.065H125.651V65H122.676V53.065H120.051V50.405H122.676V43.93ZM131.661 44.77C131.661 44.21 131.86 43.7433 132.256 43.37C132.676 42.9967 133.12 42.81 133.586 42.81C134.053 42.81 134.485 42.9967 134.881 43.37C135.278 43.7433 135.476 44.21 135.476 44.77C135.476 45.33 135.278 45.7967 134.881 46.17C134.485 46.52 134.053 46.695 133.586 46.695C133.12 46.695 132.676 46.52 132.256 46.17C131.86 45.7967 131.661 45.33 131.661 44.77ZM135.021 65H132.046V50.37H135.021V65Z" fill="white"/>
<path d="M162.479 65H140.149V60.105H162.479V65Z" fill="#DFFF1C"/>
<path d="M34.6886 30V8.25H37.9886V26.88H48.7886V30H34.6886ZM49.765 23.7C49.765 22.8 49.935 21.95 50.275 21.15C50.635 20.35 51.115 19.66 51.715 19.08C52.315 18.48 53.015 18.01 53.815 17.67C54.635 17.31 55.515 17.13 56.455 17.13C57.395 17.13 58.265 17.31 59.065 17.67C59.885 18.01 60.585 18.48 61.165 19.08C61.765 19.66 62.225 20.35 62.545 21.15C62.885 21.95 63.055 22.8 63.055 23.7C63.055 24.6 62.885 25.45 62.545 26.25C62.225 27.05 61.765 27.75 61.165 28.35C60.585 28.95 59.885 29.43 59.065 29.79C58.265 30.13 57.385 30.3 56.425 30.3C55.505 30.3 54.635 30.14 53.815 29.82C53.015 29.5 52.315 29.05 51.715 28.47C51.115 27.89 50.635 27.2 50.275 26.4C49.935 25.58 49.765 24.68 49.765 23.7ZM52.315 23.73C52.315 24.29 52.415 24.82 52.615 25.32C52.835 25.8 53.125 26.23 53.485 26.61C53.865 26.97 54.295 27.26 54.775 27.48C55.275 27.68 55.805 27.78 56.365 27.78C56.925 27.78 57.455 27.68 57.955 27.48C58.455 27.26 58.885 26.97 59.245 26.61C59.625 26.23 59.925 25.8 60.145 25.32C60.365 24.82 60.475 24.29 60.475 23.73C60.475 23.17 60.365 22.64 60.145 22.14C59.925 21.64 59.625 21.21 59.245 20.85C58.885 20.47 58.455 20.18 57.955 19.98C57.455 19.76 56.925 19.65 56.365 19.65C55.805 19.65 55.275 19.76 54.775 19.98C54.295 20.18 53.865 20.47 53.485 20.85C53.125 21.21 52.835 21.64 52.615 22.14C52.415 22.64 52.315 23.17 52.315 23.73ZM33.3008 45.76C33.3008 44.82 33.4708 43.95 33.8108 43.15C34.1508 42.33 34.6108 41.63 35.1908 41.05C35.7708 40.45 36.4508 39.98 37.2308 39.64C38.0108 39.3 38.8408 39.13 39.7208 39.13C40.4008 39.13 41.0008 39.22 41.5208 39.4C42.0608 39.58 42.5108 39.79 42.8708 40.03C43.2308 40.27 43.5108 40.51 43.7108 40.75C43.9308 40.97 44.0708 41.13 44.1308 41.23C44.1308 40.95 44.1508 40.66 44.1908 40.36C44.2308 40.04 44.2508 39.74 44.2508 39.46H46.7108V51.43C46.7108 53.51 46.1008 55.13 44.8808 56.29C43.6608 57.45 42.0108 58.03 39.9308 58.03C39.2108 58.03 38.5608 57.95 37.9808 57.79C37.4208 57.65 36.9008 57.46 36.4208 57.22C35.9608 56.98 35.5308 56.7 35.1308 56.38C34.7508 56.06 34.3708 55.73 33.9908 55.39L35.6408 53.65C36.2608 54.23 36.8908 54.69 37.5308 55.03C38.1908 55.37 38.9708 55.54 39.8708 55.54C41.2108 55.54 42.2508 55.22 42.9908 54.58C43.7308 53.94 44.1108 53.05 44.1308 51.91V51.04C44.1308 50.88 44.1508 50.71 44.1908 50.53C44.2308 50.33 44.2508 50.18 44.2508 50.08C44.0708 50.32 43.8408 50.58 43.5608 50.86C43.3008 51.12 42.9908 51.36 42.6308 51.58C42.2708 51.78 41.8508 51.95 41.3708 52.09C40.8908 52.23 40.3508 52.3 39.7508 52.3C38.8108 52.3 37.9508 52.13 37.1708 51.79C36.3908 51.45 35.7108 50.99 35.1308 50.41C34.5508 49.81 34.1008 49.12 33.7808 48.34C33.4608 47.54 33.3008 46.68 33.3008 45.76ZM35.8808 45.7C35.8808 46.28 35.9808 46.82 36.1808 47.32C36.4008 47.82 36.6908 48.25 37.0508 48.61C37.4108 48.97 37.8408 49.26 38.3408 49.48C38.8408 49.68 39.3908 49.78 39.9908 49.78C40.5908 49.78 41.1408 49.68 41.6408 49.48C42.1608 49.26 42.6008 48.97 42.9608 48.61C43.3408 48.23 43.6308 47.8 43.8308 47.32C44.0308 46.82 44.1308 46.28 44.1308 45.7C44.1308 45.12 44.0308 44.59 43.8308 44.11C43.6308 43.61 43.3408 43.18 42.9608 42.82C42.6008 42.46 42.1608 42.18 41.6408 41.98C41.1408 41.76 40.5908 41.65 39.9908 41.65C39.3908 41.65 38.8408 41.76 38.3408 41.98C37.8408 42.18 37.4108 42.46 37.0508 42.82C36.6908 43.18 36.4008 43.61 36.1808 44.11C35.9808 44.59 35.8808 45.12 35.8808 45.7ZM49.4427 45.7C49.4427 44.8 49.6127 43.95 49.9527 43.15C50.3127 42.35 50.7927 41.66 51.3927 41.08C51.9927 40.48 52.6927 40.01 53.4927 39.67C54.3127 39.31 55.1927 39.13 56.1327 39.13C57.0727 39.13 57.9427 39.31 58.7427 39.67C59.5627 40.01 60.2627 40.48 60.8427 41.08C61.4427 41.66 61.9027 42.35 62.2227 43.15C62.5627 43.95 62.7327 44.8 62.7327 45.7C62.7327 46.6 62.5627 47.45 62.2227 48.25C61.9027 49.05 61.4427 49.75 60.8427 50.35C60.2627 50.95 59.5627 51.43 58.7427 51.79C57.9427 52.13 57.0627 52.3 56.1027 52.3C55.1827 52.3 54.3127 52.14 53.4927 51.82C52.6927 51.5 51.9927 51.05 51.3927 50.47C50.7927 49.89 50.3127 49.2 49.9527 48.4C49.6127 47.58 49.4427 46.68 49.4427 45.7ZM51.9927 45.73C51.9927 46.29 52.0927 46.82 52.2927 47.32C52.5127 47.8 52.8027 48.23 53.1627 48.61C53.5427 48.97 53.9727 49.26 54.4527 49.48C54.9527 49.68 55.4827 49.78 56.0427 49.78C56.6027 49.78 57.1327 49.68 57.6327 49.48C58.1327 49.26 58.5627 48.97 58.9227 48.61C59.3027 48.23 59.6027 47.8 59.8227 47.32C60.0427 46.82 60.1527 46.29 60.1527 45.73C60.1527 45.17 60.0427 44.64 59.8227 44.14C59.6027 43.64 59.3027 43.21 58.9227 42.85C58.5627 42.47 58.1327 42.18 57.6327 41.98C57.1327 41.76 56.6027 41.65 56.0427 41.65C55.4827 41.65 54.9527 41.76 54.4527 41.98C53.9727 42.18 53.5427 42.47 53.1627 42.85C52.8027 43.21 52.5127 43.64 52.2927 44.14C52.0927 44.64 51.9927 45.17 51.9927 45.73Z" fill="#DFFF1C"/>
</svg>
