<svg width="132" height="64" viewBox="0 0 132 64" fill="none" xmlns="http://www.w3.org/2000/svg">
<path d="M39.8958 1.505C40.1058 1.83167 40.5374 2.46167 41.1908 3.395C41.8674 4.305 42.6374 5.36667 43.5008 6.58C44.3874 7.79333 45.3208 9.08833 46.3008 10.465C47.2808 11.8183 48.2024 13.1017 49.0658 14.315C49.9291 15.505 50.6758 16.5433 51.3058 17.43C51.9591 18.3167 52.3908 18.9 52.6008 19.18C52.6708 19.0633 52.8924 18.7483 53.2658 18.235C53.6391 17.7217 54.0941 17.08 54.6308 16.31C55.1908 15.54 55.8208 14.6767 56.5208 13.72C57.2208 12.74 57.9324 11.7483 58.6558 10.745C59.4024 9.71833 60.1258 8.70333 60.8258 7.7C61.5491 6.69667 62.2141 5.78667 62.8208 4.97C63.4274 4.13 63.9408 3.40667 64.3608 2.8C64.8041 2.17 65.1191 1.73833 65.3058 1.505V28H61.2458V13.79C61.2458 13.6033 61.2574 13.405 61.2808 13.195C61.3274 12.985 61.3508 12.8333 61.3508 12.74C61.1408 13.02 60.8024 13.4983 60.3358 14.175C59.8924 14.8283 59.3674 15.5867 58.7608 16.45C58.1774 17.29 57.5591 18.1883 56.9058 19.145C56.2524 20.0783 55.6341 20.965 55.0508 21.805C54.4674 22.645 53.9541 23.3917 53.5108 24.045C53.0674 24.675 52.7641 25.1183 52.6008 25.375C52.4374 25.165 52.1108 24.7333 51.6208 24.08C51.1541 23.4033 50.5941 22.6217 49.9408 21.735C49.3108 20.8483 48.6341 19.9033 47.9108 18.9C47.2108 17.8967 46.5574 16.9633 45.9508 16.1C45.3441 15.2367 44.8191 14.5017 44.3758 13.895C43.9324 13.265 43.6758 12.88 43.6058 12.74C43.6058 12.8333 43.6174 12.985 43.6408 13.195C43.6874 13.405 43.7108 13.6033 43.7108 13.79V28H39.8958V1.505ZM68.8326 20.825C68.8326 19.7517 69.0309 18.7483 69.4276 17.815C69.8476 16.8583 70.4076 16.03 71.1076 15.33C71.8076 14.6067 72.6126 14.035 73.5226 13.615C74.4559 13.195 75.4476 12.985 76.4976 12.985C77.1976 12.985 77.8392 13.0783 78.4226 13.265C79.0059 13.4283 79.5076 13.6383 79.9276 13.895C80.3476 14.1517 80.6859 14.42 80.9426 14.7C81.1992 14.98 81.3742 15.225 81.4676 15.435L81.6076 13.37H84.4776V28H81.4676V26.145C81.3509 26.3317 81.1642 26.5533 80.9076 26.81C80.6509 27.0667 80.3126 27.3117 79.8926 27.545C79.4959 27.755 79.0176 27.9417 78.4576 28.105C77.8976 28.2683 77.2559 28.35 76.5326 28.35C75.4126 28.35 74.3742 28.1517 73.4176 27.755C72.4842 27.335 71.6792 26.7867 71.0026 26.11C70.3259 25.41 69.7892 24.605 69.3926 23.695C69.0192 22.785 68.8326 21.8283 68.8326 20.825ZM71.8426 20.65C71.8426 21.3267 71.9592 21.9567 72.1926 22.54C72.4492 23.1233 72.7876 23.625 73.2076 24.045C73.6276 24.465 74.1292 24.8033 74.7126 25.06C75.2959 25.2933 75.9376 25.41 76.6376 25.41C77.3376 25.41 77.9792 25.2933 78.5626 25.06C79.1692 24.8033 79.6826 24.465 80.1026 24.045C80.5459 23.6017 80.8842 23.1 81.1176 22.54C81.3509 21.9567 81.4676 21.3267 81.4676 20.65C81.4676 19.9733 81.3509 19.355 81.1176 18.795C80.8842 18.2117 80.5459 17.71 80.1026 17.29C79.6826 16.87 79.1692 16.5433 78.5626 16.31C77.9792 16.0533 77.3376 15.925 76.6376 15.925C75.9376 15.925 75.2959 16.0533 74.7126 16.31C74.1292 16.5433 73.6276 16.87 73.2076 17.29C72.7876 17.71 72.4492 18.2117 72.1926 18.795C71.9592 19.355 71.8426 19.9733 71.8426 20.65ZM89.9406 6.93H92.9156V13.405H96.8356V16.065H92.9156V28H89.9406V16.065H87.3156V13.405H89.9406V6.93ZM99.3104 0.805H102.285V16.905C102.799 15.7383 103.522 14.805 104.455 14.105C105.389 13.3817 106.59 13.0083 108.06 12.985C109.554 12.9617 110.744 13.3583 111.63 14.175C112.54 14.9917 113.019 16.0533 113.065 17.36V28H110.055V18.725C110.009 17.9783 109.752 17.3483 109.285 16.835C108.819 16.2983 108.084 16.0067 107.08 15.96C106.38 15.96 105.739 16.0883 105.155 16.345C104.572 16.5783 104.07 16.905 103.65 17.325C103.23 17.745 102.892 18.2467 102.635 18.83C102.402 19.4133 102.285 20.055 102.285 20.755V28H99.3104V0.805ZM129.508 26.285C128.808 26.915 127.956 27.4167 126.953 27.79C125.95 28.1633 124.923 28.35 123.873 28.35C122.8 28.35 121.785 28.1517 120.828 27.755C119.895 27.335 119.078 26.7867 118.378 26.11C117.678 25.41 117.118 24.5933 116.698 23.66C116.301 22.7267 116.103 21.735 116.103 20.685C116.103 19.635 116.301 18.6433 116.698 17.71C117.118 16.7767 117.678 15.96 118.378 15.26C119.078 14.56 119.883 14.0117 120.793 13.615C121.726 13.195 122.718 12.985 123.768 12.985C125.425 12.985 126.86 13.4867 128.073 14.49C129.31 15.47 130.196 16.765 130.733 18.375C130.01 18.6317 129.181 18.9467 128.248 19.32C127.315 19.6933 126.346 20.09 125.343 20.51C124.34 20.9067 123.336 21.3033 122.333 21.7C121.33 22.0967 120.396 22.4583 119.533 22.785C119.93 23.5783 120.501 24.22 121.248 24.71C122.018 25.1767 122.87 25.41 123.803 25.41C124.433 25.41 125.063 25.2933 125.693 25.06C126.346 24.8267 126.871 24.5117 127.268 24.115L129.508 26.285ZM126.988 17.675C126.708 17.0917 126.265 16.66 125.658 16.38C125.051 16.0767 124.433 15.925 123.803 15.925C123.126 15.925 122.496 16.0533 121.913 16.31C121.353 16.5667 120.863 16.9167 120.443 17.36C120.023 17.78 119.685 18.27 119.428 18.83C119.195 19.39 119.078 19.9617 119.078 20.545C119.078 20.6617 119.078 20.7433 119.078 20.79C119.101 20.8367 119.113 20.8717 119.113 20.895C119.72 20.6617 120.373 20.405 121.073 20.125C121.796 19.8217 122.508 19.53 123.208 19.25C123.908 18.9467 124.585 18.6667 125.238 18.41C125.891 18.13 126.475 17.885 126.988 17.675ZM39.1316 36.505C39.3416 36.8317 39.7733 37.4617 40.4266 38.395C41.1033 39.305 41.8733 40.3667 42.7366 41.58C43.6233 42.7933 44.5566 44.0883 45.5366 45.465C46.5166 46.8183 47.4383 48.1017 48.3016 49.315C49.1649 50.505 49.9116 51.5433 50.5416 52.43C51.1949 53.3167 51.6266 53.9 51.8366 54.18C51.9066 54.0633 52.1283 53.7483 52.5016 53.235C52.8749 52.7217 53.3299 52.08 53.8666 51.31C54.4266 50.54 55.0566 49.6767 55.7566 48.72C56.4566 47.74 57.1683 46.7483 57.8916 45.745C58.6383 44.7183 59.3616 43.7033 60.0616 42.7C60.7849 41.6967 61.4499 40.7867 62.0566 39.97C62.6633 39.13 63.1766 38.4067 63.5966 37.8C64.0399 37.17 64.3549 36.7383 64.5416 36.505V63H60.4816V48.79C60.4816 48.6033 60.4933 48.405 60.5166 48.195C60.5633 47.985 60.5866 47.8333 60.5866 47.74C60.3766 48.02 60.0383 48.4983 59.5716 49.175C59.1283 49.8283 58.6033 50.5867 57.9966 51.45C57.4133 52.29 56.7949 53.1883 56.1416 54.145C55.4883 55.0783 54.8699 55.965 54.2866 56.805C53.7033 57.645 53.1899 58.3917 52.7466 59.045C52.3033 59.675 51.9999 60.1183 51.8366 60.375C51.6733 60.165 51.3466 59.7333 50.8566 59.08C50.3899 58.4033 49.8299 57.6217 49.1766 56.735C48.5466 55.8483 47.8699 54.9033 47.1466 53.9C46.4466 52.8967 45.7933 51.9633 45.1866 51.1C44.5799 50.2367 44.0549 49.5017 43.6116 48.895C43.1683 48.265 42.9116 47.88 42.8416 47.74C42.8416 47.8333 42.8533 47.985 42.8766 48.195C42.9233 48.405 42.9466 48.6033 42.9466 48.79V63H39.1316V36.505ZM68.0684 55.825C68.0684 54.7517 68.2667 53.7483 68.6634 52.815C69.0834 51.8583 69.6434 51.03 70.3434 50.33C71.0434 49.6067 71.8484 49.035 72.7584 48.615C73.6917 48.195 74.6834 47.985 75.7334 47.985C76.4334 47.985 77.0751 48.0783 77.6584 48.265C78.2417 48.4283 78.7434 48.6383 79.1634 48.895C79.5834 49.1517 79.9217 49.42 80.1784 49.7C80.4351 49.98 80.6101 50.225 80.7034 50.435L80.8434 48.37H83.7134V63H80.7034V61.145C80.5867 61.3317 80.4001 61.5533 80.1434 61.81C79.8867 62.0667 79.5484 62.3117 79.1284 62.545C78.7317 62.755 78.2534 62.9417 77.6934 63.105C77.1334 63.2683 76.4917 63.35 75.7684 63.35C74.6484 63.35 73.6101 63.1517 72.6534 62.755C71.7201 62.335 70.9151 61.7867 70.2384 61.11C69.5617 60.41 69.0251 59.605 68.6284 58.695C68.2551 57.785 68.0684 56.8283 68.0684 55.825ZM71.0784 55.65C71.0784 56.3267 71.1951 56.9567 71.4284 57.54C71.6851 58.1233 72.0234 58.625 72.4434 59.045C72.8634 59.465 73.3651 59.8033 73.9484 60.06C74.5317 60.2933 75.1734 60.41 75.8734 60.41C76.5734 60.41 77.2151 60.2933 77.7984 60.06C78.4051 59.8033 78.9184 59.465 79.3384 59.045C79.7817 58.6017 80.1201 58.1 80.3534 57.54C80.5867 56.9567 80.7034 56.3267 80.7034 55.65C80.7034 54.9733 80.5867 54.355 80.3534 53.795C80.1201 53.2117 79.7817 52.71 79.3384 52.29C78.9184 51.87 78.4051 51.5433 77.7984 51.31C77.2151 51.0533 76.5734 50.925 75.8734 50.925C75.1734 50.925 74.5317 51.0533 73.9484 51.31C73.3651 51.5433 72.8634 51.87 72.4434 52.29C72.0234 52.71 71.6851 53.2117 71.4284 53.795C71.1951 54.355 71.0784 54.9733 71.0784 55.65ZM89.1764 41.93H92.1514V48.405H96.0714V51.065H92.1514V63H89.1764V51.065H86.5514V48.405H89.1764V41.93ZM98.1613 42.77C98.1613 42.21 98.3596 41.7433 98.7563 41.37C99.1763 40.9967 99.6196 40.81 100.086 40.81C100.553 40.81 100.985 40.9967 101.381 41.37C101.778 41.7433 101.976 42.21 101.976 42.77C101.976 43.33 101.778 43.7967 101.381 44.17C100.985 44.52 100.553 44.695 100.086 44.695C99.6196 44.695 99.1763 44.52 98.7563 44.17C98.3596 43.7967 98.1613 43.33 98.1613 42.77ZM101.521 63H98.5463V48.37H101.521V63Z" fill="white"/>
<path d="M128.979 63H106.649V58.105H128.979V63Z" fill="#DFFF1C"/>
<path d="M1.68855 28V6.25H4.98856V24.88H15.7886V28H1.68855ZM16.765 21.7C16.765 20.8 16.935 19.95 17.275 19.15C17.635 18.35 18.115 17.66 18.715 17.08C19.315 16.48 20.015 16.01 20.815 15.67C21.635 15.31 22.515 15.13 23.455 15.13C24.395 15.13 25.265 15.31 26.065 15.67C26.885 16.01 27.585 16.48 28.165 17.08C28.765 17.66 29.225 18.35 29.545 19.15C29.885 19.95 30.055 20.8 30.055 21.7C30.055 22.6 29.885 23.45 29.545 24.25C29.225 25.05 28.765 25.75 28.165 26.35C27.585 26.95 26.885 27.43 26.065 27.79C25.265 28.13 24.385 28.3 23.425 28.3C22.505 28.3 21.635 28.14 20.815 27.82C20.015 27.5 19.315 27.05 18.715 26.47C18.115 25.89 17.635 25.2 17.275 24.4C16.935 23.58 16.765 22.68 16.765 21.7ZM19.315 21.73C19.315 22.29 19.415 22.82 19.615 23.32C19.835 23.8 20.125 24.23 20.485 24.61C20.865 24.97 21.295 25.26 21.775 25.48C22.275 25.68 22.805 25.78 23.365 25.78C23.925 25.78 24.455 25.68 24.955 25.48C25.455 25.26 25.885 24.97 26.245 24.61C26.625 24.23 26.925 23.8 27.145 23.32C27.365 22.82 27.475 22.29 27.475 21.73C27.475 21.17 27.365 20.64 27.145 20.14C26.925 19.64 26.625 19.21 26.245 18.85C25.885 18.47 25.455 18.18 24.955 17.98C24.455 17.76 23.925 17.65 23.365 17.65C22.805 17.65 22.275 17.76 21.775 17.98C21.295 18.18 20.865 18.47 20.485 18.85C20.125 19.21 19.835 19.64 19.615 20.14C19.415 20.64 19.315 21.17 19.315 21.73ZM0.30082 43.76C0.30082 42.82 0.47082 41.95 0.81082 41.15C1.15082 40.33 1.61082 39.63 2.19082 39.05C2.77082 38.45 3.45082 37.98 4.23082 37.64C5.01082 37.3 5.84082 37.13 6.72082 37.13C7.40082 37.13 8.00082 37.22 8.52082 37.4C9.06082 37.58 9.51082 37.79 9.87082 38.03C10.2308 38.27 10.5108 38.51 10.7108 38.75C10.9308 38.97 11.0708 39.13 11.1308 39.23C11.1308 38.95 11.1508 38.66 11.1908 38.36C11.2308 38.04 11.2508 37.74 11.2508 37.46H13.7108V49.43C13.7108 51.51 13.1008 53.13 11.8808 54.29C10.6608 55.45 9.01082 56.03 6.93082 56.03C6.21082 56.03 5.56082 55.95 4.98082 55.79C4.42082 55.65 3.90082 55.46 3.42082 55.22C2.96082 54.98 2.53082 54.7 2.13082 54.38C1.75082 54.06 1.37082 53.73 0.99082 53.39L2.64082 51.65C3.26082 52.23 3.89082 52.69 4.53082 53.03C5.19082 53.37 5.97082 53.54 6.87082 53.54C8.21082 53.54 9.25082 53.22 9.99082 52.58C10.7308 51.94 11.1108 51.05 11.1308 49.91V49.04C11.1308 48.88 11.1508 48.71 11.1908 48.53C11.2308 48.33 11.2508 48.18 11.2508 48.08C11.0708 48.32 10.8408 48.58 10.5608 48.86C10.3008 49.12 9.99082 49.36 9.63082 49.58C9.27082 49.78 8.85082 49.95 8.37082 50.09C7.89082 50.23 7.35082 50.3 6.75082 50.3C5.81082 50.3 4.95082 50.13 4.17082 49.79C3.39082 49.45 2.71082 48.99 2.13082 48.41C1.55082 47.81 1.10082 47.12 0.78082 46.34C0.46082 45.54 0.30082 44.68 0.30082 43.76ZM2.88082 43.7C2.88082 44.28 2.98082 44.82 3.18082 45.32C3.40082 45.82 3.69082 46.25 4.05082 46.61C4.41082 46.97 4.84082 47.26 5.34082 47.48C5.84082 47.68 6.39082 47.78 6.99082 47.78C7.59082 47.78 8.14082 47.68 8.64082 47.48C9.16082 47.26 9.60082 46.97 9.96082 46.61C10.3408 46.23 10.6308 45.8 10.8308 45.32C11.0308 44.82 11.1308 44.28 11.1308 43.7C11.1308 43.12 11.0308 42.59 10.8308 42.11C10.6308 41.61 10.3408 41.18 9.96082 40.82C9.60082 40.46 9.16082 40.18 8.64082 39.98C8.14082 39.76 7.59082 39.65 6.99082 39.65C6.39082 39.65 5.84082 39.76 5.34082 39.98C4.84082 40.18 4.41082 40.46 4.05082 40.82C3.69082 41.18 3.40082 41.61 3.18082 42.11C2.98082 42.59 2.88082 43.12 2.88082 43.7ZM16.4427 43.7C16.4427 42.8 16.6127 41.95 16.9527 41.15C17.3127 40.35 17.7927 39.66 18.3927 39.08C18.9927 38.48 19.6927 38.01 20.4927 37.67C21.3127 37.31 22.1927 37.13 23.1327 37.13C24.0727 37.13 24.9427 37.31 25.7427 37.67C26.5627 38.01 27.2627 38.48 27.8427 39.08C28.4427 39.66 28.9027 40.35 29.2227 41.15C29.5627 41.95 29.7327 42.8 29.7327 43.7C29.7327 44.6 29.5627 45.45 29.2227 46.25C28.9027 47.05 28.4427 47.75 27.8427 48.35C27.2627 48.95 26.5627 49.43 25.7427 49.79C24.9427 50.13 24.0627 50.3 23.1027 50.3C22.1827 50.3 21.3127 50.14 20.4927 49.82C19.6927 49.5 18.9927 49.05 18.3927 48.47C17.7927 47.89 17.3127 47.2 16.9527 46.4C16.6127 45.58 16.4427 44.68 16.4427 43.7ZM18.9927 43.73C18.9927 44.29 19.0927 44.82 19.2927 45.32C19.5127 45.8 19.8027 46.23 20.1627 46.61C20.5427 46.97 20.9727 47.26 21.4527 47.48C21.9527 47.68 22.4827 47.78 23.0427 47.78C23.6027 47.78 24.1327 47.68 24.6327 47.48C25.1327 47.26 25.5627 46.97 25.9227 46.61C26.3027 46.23 26.6027 45.8 26.8227 45.32C27.0427 44.82 27.1527 44.29 27.1527 43.73C27.1527 43.17 27.0427 42.64 26.8227 42.14C26.6027 41.64 26.3027 41.21 25.9227 40.85C25.5627 40.47 25.1327 40.18 24.6327 39.98C24.1327 39.76 23.6027 39.65 23.0427 39.65C22.4827 39.65 21.9527 39.76 21.4527 39.98C20.9727 40.18 20.5427 40.47 20.1627 40.85C19.8027 41.21 19.5127 41.64 19.2927 42.14C19.0927 42.64 18.9927 43.17 18.9927 43.73Z" fill="#DFFF1C"/>
</svg>
