<svg width="348" height="81" viewBox="0 0 348 81" fill="none" xmlns="http://www.w3.org/2000/svg">
<line x1="3.5" y1="-3.5" x2="66.5" y2="-3.5" transform="matrix(0.707107 0.707107 -0.668793 0.743449 267.649 30.0779)" stroke="#2FFFC1" stroke-width="7" stroke-linecap="round"/>
<line x1="2.5" y1="-2.5" x2="87.5" y2="-2.5" transform="matrix(0.707107 0.707107 -0.668793 0.743449 268.39 13.803)" stroke="#0ECB87" stroke-width="5" stroke-linecap="round"/>
<line x1="2" y1="-2" x2="15" y2="-2" transform="matrix(0.707107 0.707107 -0.668793 0.743449 269.205 2.44891)" stroke="#1B8C56" stroke-width="4" stroke-linecap="round"/>
<line x1="2" y1="-2" x2="15" y2="-2" transform="matrix(0.707107 0.707107 -0.668793 0.743449 333.205 67.4489)" stroke="#1B8C56" stroke-width="4" stroke-linecap="round"/>
<line x1="274.947" y1="66.947" x2="280.29" y2="72.2901" stroke="#91FFD7" stroke-width="8" stroke-linecap="round"/>
<line x1="4" y1="-4" x2="41.3948" y2="-4" transform="matrix(0.707107 0.707107 -0.668793 0.743449 267.931 48.0958)" stroke="#82FFC3" stroke-width="8" stroke-linecap="round"/>
<line x1="3.5" y1="-3.5" x2="66.5" y2="-3.5" transform="matrix(0.707107 -0.707107 0.743449 0.668793 30.5446 79.6613)" stroke="#2FFFC1" stroke-width="7" stroke-linecap="round"/>
<line x1="2.5" y1="-2.5" x2="87.5" y2="-2.5" transform="matrix(0.707107 -0.707107 0.743449 0.668793 14.2698 78.9201)" stroke="#0ECB87" stroke-width="5" stroke-linecap="round"/>
<line x1="2" y1="-2" x2="15" y2="-2" transform="matrix(0.707107 -0.707107 0.743449 0.668793 2.91565 78.1053)" stroke="#1B8C56" stroke-width="4" stroke-linecap="round"/>
<line x1="2" y1="-2" x2="15" y2="-2" transform="matrix(0.707107 -0.707107 0.743449 0.668793 67.9156 14.1053)" stroke="#1B8C56" stroke-width="4" stroke-linecap="round"/>
<line x1="67.4137" y1="72.3638" x2="72.7568" y2="67.0206" stroke="#91FFD7" stroke-width="8" stroke-linecap="round"/>
<line x1="4" y1="-4" x2="41.3948" y2="-4" transform="matrix(0.707107 -0.707107 0.743449 0.668793 48.5625 79.3792)" stroke="#82FFC3" stroke-width="8" stroke-linecap="round"/>
</svg>
