<svg width="56" height="48" viewBox="0 0 56 48" fill="none" xmlns="http://www.w3.org/2000/svg">
<ellipse cx="28.3956" cy="23.9358" rx="22.0977" ry="23.2968" fill="url(#paint0_radial)"/>
<path d="M23.9666 25.0013C23.0146 24.348 22.0066 23.6946 20.9426 23.0413C19.8972 22.3693 18.8706 21.744 17.8626 21.1653V20.9693L18.1146 19.9053L18.2266 19.7933C19.5146 20.7453 20.8306 21.66 22.1746 22.5373C23.5186 23.396 24.8626 24.2173 26.2066 25.0013V25.1413C24.8626 25.9253 23.5186 26.756 22.1746 27.6333C20.8306 28.492 19.5146 29.3973 18.2266 30.3493L18.1146 30.2373L17.8626 29.1733V28.9773C18.8706 28.38 19.8972 27.7546 20.9426 27.1013C22.0066 26.448 23.0146 25.7946 23.9666 25.1413V25.0013ZM39.9843 31.8053V33.2613H27.8603V31.8053H39.9843Z" fill="#DFFF1C"/>
<path d="M23.9666 25.0013H25.5666V24.1588L24.8719 23.6821L23.9666 25.0013ZM20.9426 23.0413L20.0774 24.3872L20.0913 24.3961L20.1053 24.4048L20.9426 23.0413ZM17.8626 21.1653H16.2626V22.0917L17.066 22.5529L17.8626 21.1653ZM17.8626 20.9693L16.3056 20.6006L16.2626 20.7824V20.9693H17.8626ZM18.1146 19.9053L16.9832 18.7739L16.6622 19.0949L16.5576 19.5366L18.1146 19.9053ZM18.2266 19.7933L19.1776 18.5066L18.0695 17.6876L17.0952 18.6619L18.2266 19.7933ZM22.1746 22.5373L21.3 23.8771L21.3065 23.8814L21.3131 23.8856L22.1746 22.5373ZM26.2066 25.0013H27.8066V24.0823L27.0128 23.6193L26.2066 25.0013ZM26.2066 25.1413L27.0128 26.5233L27.8066 26.0603V25.1413H26.2066ZM22.1746 27.6333L23.036 28.9816L23.0426 28.9774L23.0492 28.9731L22.1746 27.6333ZM18.2266 30.3493L17.0952 31.4807L18.0695 32.455L19.1776 31.636L18.2266 30.3493ZM18.1146 30.2373L16.5576 30.606L16.6622 31.0477L16.9832 31.3687L18.1146 30.2373ZM17.8626 29.1733H16.2626V29.3602L16.3056 29.542L17.8626 29.1733ZM17.8626 28.9773L17.0469 27.6008L16.2626 28.0656V28.9773H17.8626ZM20.9426 27.1013L20.1053 25.7378L20.0946 25.7445L20.9426 27.1013ZM23.9666 25.1413L24.8719 26.4605L25.5666 25.9838V25.1413H23.9666ZM24.8719 23.6821C23.8959 23.0122 22.865 22.3442 21.7798 21.6778L20.1053 24.4048C21.1481 25.0451 22.1333 25.6837 23.0612 26.3205L24.8719 23.6821ZM21.8078 21.6954C20.7415 21.0099 19.6919 20.3706 18.6592 19.7777L17.066 22.5529C18.0492 23.1174 19.053 23.7287 20.0774 24.3872L21.8078 21.6954ZM19.4626 21.1653V20.9693H16.2626V21.1653H19.4626ZM19.4195 21.338L19.6715 20.274L16.5576 19.5366L16.3056 20.6006L19.4195 21.338ZM19.2459 21.0367L19.3579 20.9247L17.0952 18.6619L16.9832 18.7739L19.2459 21.0367ZM17.2755 21.08C18.5885 22.0505 19.93 22.9828 21.3 23.8771L23.0492 21.1975C21.7311 20.3371 20.4406 19.4401 19.1776 18.5066L17.2755 21.08ZM21.3131 23.8856C22.6749 24.7556 24.0373 25.5882 25.4004 26.3833L27.0128 23.6193C25.6879 22.8464 24.3623 22.0363 23.036 21.189L21.3131 23.8856ZM24.6066 25.0013V25.1413H27.8066V25.0013H24.6066ZM25.4004 23.7593C24.0325 24.5572 22.6657 25.402 21.3 26.2935L23.0492 28.9731C24.3714 28.11 25.6926 27.2934 27.0128 26.5233L25.4004 23.7593ZM21.3131 26.285C19.9385 27.1633 18.5926 28.0892 17.2755 29.0626L19.1776 31.636C20.4366 30.7054 21.7227 29.8207 23.036 28.9816L21.3131 26.285ZM19.3579 29.2179L19.2459 29.1059L16.9832 31.3687L17.0952 31.4807L19.3579 29.2179ZM19.6715 29.8686L19.4195 28.8046L16.3056 29.542L16.5576 30.606L19.6715 29.8686ZM19.4626 29.1733V28.9773H16.2626V29.1733H19.4626ZM18.6782 30.3538C19.6976 29.7497 20.7351 29.1178 21.7906 28.4581L20.0946 25.7445C19.0594 26.3915 18.0435 27.0102 17.0469 27.6008L18.6782 30.3538ZM21.7798 28.4648C22.865 27.7984 23.8959 27.1304 24.8719 26.4605L23.0612 23.8221C22.1333 24.4589 21.1481 25.0975 20.1053 25.7378L21.7798 28.4648ZM25.5666 25.1413V25.0013H22.3666V25.1413H25.5666ZM39.9843 31.8053H41.5843V30.2053H39.9843V31.8053ZM39.9843 33.2613V34.8613H41.5843V33.2613H39.9843ZM27.8603 33.2613H26.2603V34.8613H27.8603V33.2613ZM27.8603 31.8053V30.2053H26.2603V31.8053H27.8603ZM38.3843 31.8053V33.2613H41.5843V31.8053H38.3843ZM39.9843 31.6613H27.8603V34.8613H39.9843V31.6613ZM29.4603 33.2613V31.8053H26.2603V33.2613H29.4603ZM27.8603 33.4053H39.9843V30.2053H27.8603V33.4053Z" fill="#DFFF1C"/>
<defs>
<radialGradient id="paint0_radial" cx="0" cy="0" r="1" gradientUnits="userSpaceOnUse" gradientTransform="translate(28.3956 23.9358) rotate(90) scale(23.2968 22.0977)">
<stop stop-color="#151515"/>
<stop offset="1" stop-color="#1C1C1C" stop-opacity="0"/>
</radialGradient>
</defs>
</svg>
