<svg width="38" height="41" viewBox="0 0 38 41" fill="none" xmlns="http://www.w3.org/2000/svg">
<circle cx="19" cy="24" r="17" fill="url(#paint0_radial)"/>
<rect x="4.5" y="13.5" width="29" height="22" rx="6.5" stroke="#797575" stroke-width="3"/>
<path d="M19.5199 18.96C20.0999 18.96 20.6249 19.09 21.0949 19.35C21.5749 19.61 21.9549 19.985 22.2349 20.475C22.5149 20.955 22.6549 21.515 22.6549 22.155C22.6549 22.665 22.5249 23.15 22.2649 23.61C22.0149 24.06 21.6649 24.435 21.2149 24.735C20.7749 25.035 20.2899 25.21 19.7599 25.26V26.745C19.7599 26.875 19.7149 26.985 19.6249 27.075C19.5449 27.155 19.4399 27.195 19.3099 27.195C19.1799 27.195 19.0699 27.155 18.9799 27.075C18.8999 26.985 18.8649 26.875 18.8749 26.745V24.96C18.8749 24.83 18.9149 24.72 18.9949 24.63C19.0849 24.54 19.1949 24.495 19.3249 24.495C20.0149 24.455 20.5849 24.22 21.0349 23.79C21.4949 23.36 21.7249 22.815 21.7249 22.155C21.7249 21.705 21.6249 21.305 21.4249 20.955C21.2349 20.595 20.9699 20.32 20.6299 20.13C20.2999 19.93 19.9299 19.83 19.5199 19.83C19.1199 19.83 18.7399 19.925 18.3799 20.115C18.0199 20.295 17.7149 20.545 17.4649 20.865C17.3449 20.985 17.2199 21.045 17.0899 21.045C16.9899 21.045 16.9099 21.02 16.8499 20.97C16.6999 20.88 16.6249 20.76 16.6249 20.61C16.6249 20.51 16.6649 20.41 16.7449 20.31C17.0649 19.9 17.4699 19.575 17.9599 19.335C18.4499 19.085 18.9699 18.96 19.5199 18.96ZM19.4149 28.53C19.5849 28.53 19.7149 28.58 19.8049 28.68C19.8949 28.78 19.9399 28.92 19.9399 29.1V29.43C19.9399 29.61 19.8949 29.75 19.8049 29.85C19.7149 29.95 19.5849 30 19.4149 30H19.3249C19.1449 30 19.0099 29.95 18.9199 29.85C18.8299 29.75 18.7849 29.61 18.7849 29.43V29.1C18.7849 28.92 18.8299 28.78 18.9199 28.68C19.0099 28.58 19.1449 28.53 19.3249 28.53H19.4149Z" fill="#797575"/>
<path d="M21.0949 19.35L20.8044 19.875L20.8091 19.8776L21.0949 19.35ZM22.2349 20.475L21.7139 20.7727L21.7166 20.7773L22.2349 20.475ZM22.2649 23.61L21.7425 23.3148L21.7404 23.3186L22.2649 23.61ZM21.2149 24.735L20.882 24.2357L20.8769 24.2393L21.2149 24.735ZM19.7599 25.26L19.7035 24.6627L19.1599 24.7139V25.26H19.7599ZM19.6249 27.075L20.0491 27.4993L19.6249 27.075ZM18.9799 27.075L18.5314 27.4736L18.5549 27.5L18.5812 27.5234L18.9799 27.075ZM18.8749 26.745L19.4731 26.791L19.4749 26.768V26.745H18.8749ZM18.9949 24.63L18.5706 24.2057L18.5581 24.2182L18.5464 24.2314L18.9949 24.63ZM19.3249 24.495V25.095H19.3422L19.3596 25.094L19.3249 24.495ZM21.0349 23.79L20.6251 23.3517L20.6203 23.3562L21.0349 23.79ZM21.4249 20.955L20.8942 21.2351L20.8989 21.2439L20.9039 21.2527L21.4249 20.955ZM20.6299 20.13L20.3189 20.6431L20.3279 20.6486L20.3372 20.6538L20.6299 20.13ZM18.3799 20.115L18.6483 20.6518L18.6599 20.6456L18.3799 20.115ZM17.4649 20.865L17.8891 21.2893L17.9151 21.2633L17.9377 21.2344L17.4649 20.865ZM16.8499 20.97L17.234 20.5091L17.1983 20.4794L17.1586 20.4555L16.8499 20.97ZM16.7449 20.31L17.2134 20.6848L17.2179 20.6792L16.7449 20.31ZM17.9599 19.335L18.2238 19.8739L18.2325 19.8695L17.9599 19.335ZM19.8049 28.68L20.2508 28.2786L20.2508 28.2786L19.8049 28.68ZM19.8049 29.85L19.3589 29.4486L19.8049 29.85ZM18.9199 28.68L18.4739 28.2786L18.4739 28.2786L18.9199 28.68ZM19.5199 19.56C20.0066 19.56 20.4304 19.6681 20.8044 19.875L21.3853 18.825C20.8194 18.5119 20.1931 18.36 19.5199 18.36V19.56ZM20.8091 19.8776C21.1874 20.0825 21.4874 20.3763 21.7139 20.7727L22.7558 20.1773C22.4223 19.5937 21.9623 19.1375 21.3806 18.8224L20.8091 19.8776ZM21.7166 20.7773C21.9354 21.1524 22.0549 21.6049 22.0549 22.155H23.2549C23.2549 21.4251 23.0943 20.7576 22.7531 20.1727L21.7166 20.7773ZM22.0549 22.155C22.0549 22.5577 21.9535 22.9414 21.7425 23.3148L22.7872 23.9052C23.0962 23.3585 23.2549 22.7723 23.2549 22.155H22.0549ZM21.7404 23.3186C21.5392 23.6808 21.2567 23.986 20.882 24.2358L21.5477 25.2342C22.0731 24.884 22.4906 24.4392 22.7894 23.9014L21.7404 23.3186ZM20.8769 24.2393C20.5206 24.4822 20.1325 24.6222 19.7035 24.6627L19.8162 25.8573C20.4472 25.7978 21.0291 25.5878 21.5529 25.2307L20.8769 24.2393ZM19.1599 25.26V26.745H20.3599V25.26H19.1599ZM19.1599 26.745C19.1599 26.7394 19.1611 26.7214 19.1708 26.6978C19.1805 26.674 19.1933 26.658 19.2006 26.6507L20.0491 27.4993C20.2543 27.2941 20.3599 27.0303 20.3599 26.745H19.1599ZM19.2006 26.6507C19.22 26.6313 19.2454 26.6146 19.2725 26.6043C19.298 26.5946 19.3132 26.595 19.3099 26.595V27.795C19.5733 27.795 19.8396 27.7088 20.0491 27.4993L19.2006 26.6507ZM19.3099 26.595C19.3071 26.595 19.3173 26.5947 19.3349 26.6011C19.3532 26.6078 19.3685 26.6177 19.3785 26.6266L18.5812 27.5234C18.7902 27.7092 19.0456 27.795 19.3099 27.795V26.595ZM19.4283 26.6764C19.4417 26.6914 19.4563 26.7145 19.4654 26.7431C19.4741 26.7706 19.4733 26.789 19.4731 26.791L18.2766 26.699C18.2553 26.9765 18.3337 27.2511 18.5314 27.4736L19.4283 26.6764ZM19.4749 26.745V24.96H18.2749V26.745H19.4749ZM19.4749 24.96C19.4749 24.9572 19.4751 24.9675 19.4687 24.985C19.4621 25.0033 19.4522 25.0186 19.4433 25.0286L18.5464 24.2314C18.3607 24.4403 18.2749 24.6957 18.2749 24.96H19.4749ZM19.4191 25.0543C19.4118 25.0616 19.3959 25.0743 19.372 25.0841C19.3484 25.0937 19.3304 25.095 19.3249 25.095V23.895C19.0395 23.895 18.7758 24.0005 18.5706 24.2057L19.4191 25.0543ZM19.3596 25.094C20.175 25.0467 20.8849 24.7632 21.4494 24.2238L20.6203 23.3562C20.2849 23.6768 19.8547 23.8633 19.2901 23.896L19.3596 25.094ZM21.4446 24.2283C22.0324 23.6789 22.3249 22.9721 22.3249 22.155H21.1249C21.1249 22.6579 20.9573 23.0411 20.6251 23.3517L21.4446 24.2283ZM22.3249 22.155C22.3249 21.613 22.2034 21.1082 21.9458 20.6573L20.9039 21.2527C21.0463 21.5018 21.1249 21.797 21.1249 22.155H22.3249ZM21.9555 20.6749C21.714 20.2173 21.3685 19.8554 20.9226 19.6062L20.3372 20.6538C20.5713 20.7846 20.7558 20.9727 20.8942 21.2351L21.9555 20.6749ZM20.9408 19.6169C20.5111 19.3565 20.0324 19.23 19.5199 19.23V20.43C19.8274 20.43 20.0886 20.5035 20.3189 20.6431L20.9408 19.6169ZM19.5199 19.23C19.0205 19.23 18.5445 19.3496 18.0998 19.5844L18.6599 20.6456C18.9352 20.5004 19.2192 20.43 19.5199 20.43V19.23ZM18.1115 19.5783C17.6711 19.7986 17.2964 20.106 16.992 20.4956L17.9377 21.2344C18.1333 20.984 18.3687 20.7914 18.6482 20.6517L18.1115 19.5783ZM17.0406 20.4407C17.0181 20.4632 17.011 20.4641 17.0215 20.4591C17.027 20.4564 17.0363 20.4527 17.049 20.4497C17.0618 20.4467 17.0757 20.445 17.0899 20.445V21.645C17.4233 21.645 17.6924 21.486 17.8891 21.2893L17.0406 20.4407ZM17.0899 20.445C17.0899 20.445 17.0899 20.445 17.0899 20.445C17.0899 20.445 17.0899 20.445 17.0899 20.445C17.0899 20.445 17.09 20.445 17.09 20.445C17.0902 20.445 17.0903 20.445 17.0906 20.445C17.091 20.445 17.0917 20.4451 17.0927 20.4451C17.0946 20.4452 17.0974 20.4455 17.1012 20.446C17.1086 20.4471 17.1198 20.4492 17.1338 20.4536C17.1633 20.4628 17.1993 20.4801 17.234 20.5091L16.4658 21.4309C16.6609 21.5935 16.8897 21.645 17.0899 21.645V20.445ZM17.1586 20.4555C17.146 20.448 17.1667 20.4573 17.1899 20.4945C17.2156 20.5357 17.2249 20.5796 17.2249 20.61H16.0249C16.0249 21.0091 16.246 21.3074 16.5412 21.4845L17.1586 20.4555ZM17.2249 20.61C17.2249 20.642 17.2181 20.6675 17.2119 20.6828C17.2064 20.6968 17.2035 20.6972 17.2134 20.6848L16.2763 19.9352C16.1355 20.1113 16.0249 20.3394 16.0249 20.61H17.2249ZM17.2179 20.6792C17.4792 20.3444 17.8113 20.0759 18.2238 19.8738L17.6959 18.7962C17.1284 19.0741 16.6506 19.4556 16.2719 19.9408L17.2179 20.6792ZM18.2325 19.8695C18.6381 19.6625 19.0647 19.56 19.5199 19.56V18.36C18.8751 18.36 18.2616 18.5075 17.6872 18.8005L18.2325 19.8695ZM19.4149 29.13C19.442 29.13 19.4415 29.1341 19.4245 29.1275C19.4158 29.1242 19.4043 29.1186 19.3919 29.1101C19.3793 29.1016 19.3681 29.0917 19.3589 29.0814L20.2508 28.2786C20.0185 28.0204 19.707 27.93 19.4149 27.93V29.13ZM19.3589 29.0814C19.3512 29.0728 19.3452 29.0642 19.341 29.0567C19.3368 29.0492 19.3352 29.0444 19.3349 29.0436C19.3346 29.0427 19.3399 29.0589 19.3399 29.1H20.5399C20.5399 28.8227 20.4695 28.5215 20.2508 28.2786L19.3589 29.0814ZM19.3399 29.1V29.43H20.5399V29.1H19.3399ZM19.3399 29.43C19.3399 29.4711 19.3346 29.4873 19.3349 29.4864C19.3352 29.4856 19.3368 29.4808 19.341 29.4733C19.3452 29.4658 19.3512 29.4572 19.3589 29.4486L20.2508 30.2514C20.4695 30.0085 20.5399 29.7073 20.5399 29.43H19.3399ZM19.3589 29.4486C19.3681 29.4383 19.3793 29.4284 19.3919 29.4199C19.4043 29.4114 19.4158 29.4058 19.4245 29.4025C19.4415 29.3959 19.442 29.4 19.4149 29.4V30.6C19.707 30.6 20.0185 30.5096 20.2508 30.2514L19.3589 29.4486ZM19.4149 29.4H19.3249V30.6H19.4149V29.4ZM19.3249 29.4C19.2889 29.4 19.2835 29.3948 19.297 29.3999C19.3042 29.4025 19.3155 29.4076 19.3286 29.4164C19.3419 29.4253 19.3547 29.4362 19.3658 29.4486L18.4739 30.2514C18.7126 30.5166 19.0351 30.6 19.3249 30.6V29.4ZM19.3658 29.4486C19.3735 29.4572 19.3795 29.4658 19.3837 29.4733C19.3879 29.4808 19.3896 29.4856 19.3898 29.4864C19.3901 29.4873 19.3849 29.4711 19.3849 29.43H18.1849C18.1849 29.7073 18.2553 30.0085 18.4739 30.2514L19.3658 29.4486ZM19.3849 29.43V29.1H18.1849V29.43H19.3849ZM19.3849 29.1C19.3849 29.0589 19.3901 29.0427 19.3898 29.0436C19.3896 29.0444 19.3879 29.0492 19.3837 29.0567C19.3795 29.0642 19.3735 29.0728 19.3658 29.0814L18.4739 28.2786C18.2553 28.5215 18.1849 28.8227 18.1849 29.1H19.3849ZM19.3658 29.0814C19.3547 29.0938 19.3419 29.1047 19.3286 29.1136C19.3155 29.1224 19.3042 29.1275 19.297 29.1301C19.2835 29.1352 19.2889 29.13 19.3249 29.13V27.93C19.0351 27.93 18.7126 28.0134 18.4739 28.2786L19.3658 29.0814ZM19.3249 29.13H19.4149V27.93H19.3249V29.13Z" fill="#797575"/>
<defs>
<radialGradient id="paint0_radial" cx="0" cy="0" r="1" gradientUnits="userSpaceOnUse" gradientTransform="translate(19 24) rotate(90) scale(17)">
<stop stop-color="#2D2D2D"/>
<stop offset="1" stop-color="#353535" stop-opacity="0"/>
</radialGradient>
</defs>
</svg>
